<?xml version="1.0" encoding="UTF-8" standalone="no"?><svg xmlns="http://www.w3.org/2000/svg" xmlns:xlink="http://www.w3.org/1999/xlink" clip-rule="evenodd" stroke-miterlimit="10" viewBox="0 0 1024 768"><desc>SVG generated by Keynote</desc><defs></defs><g transform="matrix(1.00, 0.00, -0.00, -1.00, 0.0, 768.0)"><g><clipPath id="clip0x600000eacd80"><path d="M 0.0 768.0 L 1024.0 768.0 L 1024.0 0.0 L 0.0 0.0 Z M 0.0 768.0 "></path></clipPath><g clip-path="url(#clip0x600000eacd80)"><image xlink:href="574DCE55A4CF432400CBDDDE1DFDFC9B.jpeg" width="2048.00" height="1536.00" transform="matrix(0.50, 0.00, -0.00, -0.50, 0.0, 768.0)"></image></g></g><g opacity="0.10"><g><clipPath id="clip0x6000010b1700"><path d="M 0.0 0.0 L 1024.0 0.0 L 1024.0 534.0 L 0.0 534.0 Z M 0.0 0.0 "></path></clipPath><g clip-path="url(#clip0x6000010b1700)"><image xlink:href="DAA0CB2C1283EC3FF20C1F3005C38FD4.png" width="990.00" height="409.00" transform="matrix(1.30, 0.00, -0.00, -1.30, -144.0, 532.0)"></image></g></g></g><text xml:space="preserve" font-family="SauceCodePowerline-Regular,Source Code Pro for Powerline" font-size="113.7" fill="#525252" transform="matrix(1.00, 0.00, -0.00, -1.00, 33.3, 651.4)">b</text><text xml:space="preserve" font-family="SauceCodePowerline-Regular,Source Code Pro for Powerline" font-size="113.7" fill="#525252" transform="matrix(1.00, 0.00, -0.00, -1.00, 101.5, 651.4)">i</text><text xml:space="preserve" font-family="SauceCodePowerline-Regular,Source Code Pro for Powerline" font-size="113.7" fill="#525252" transform="matrix(1.00, 0.00, -0.00, -1.00, 169.6, 651.4)">o</text><text xml:space="preserve" font-family="SauceCodePowerline-Regular,Source Code Pro for Powerline" font-size="113.7" fill="#525252" transform="matrix(1.00, 0.00, -0.00, -1.00, 237.7, 651.4)">n</text><text xml:space="preserve" font-family="SauceCodePowerline-Regular,Source Code Pro for Powerline" font-size="113.7" fill="#525252" transform="matrix(1.00, 0.00, -0.00, -1.00, 305.9, 651.4)">o</text><text xml:space="preserve" font-family="SauceCodePowerline-Regular,Source Code Pro for Powerline" font-size="113.7" fill="#525252" transform="matrix(1.00, 0.00, -0.00, -1.00, 374.0, 651.4)">d</text><text xml:space="preserve" font-family="SauceCodePowerline-Regular,Source Code Pro for Powerline" font-size="113.7" fill="#525252" transform="matrix(1.00, 0.00, -0.00, -1.00, 442.1, 651.4)">e</text><text xml:space="preserve" font-family="SauceCodePowerline-Regular,Source Code Pro for Powerline" font-size="113.7" fill="#525252" transform="matrix(1.00, 0.00, -0.00, -1.00, 510.3, 651.4)">.</text><text xml:space="preserve" font-family="SauceCodePowerline-Regular,Source Code Pro for Powerline" font-size="113.7" fill="#525252" transform="matrix(1.00, 0.00, -0.00, -1.00, 578.4, 651.4)">i</text><text xml:space="preserve" font-family="SauceCodePowerline-Regular,Source Code Pro for Powerline" font-size="113.7" fill="#525252" transform="matrix(1.00, 0.00, -0.00, -1.00, 646.5, 651.4)">o</text><text xml:space="preserve" font-family="SauceCodePowerline-Regular,Source Code Pro for Powerline" font-size="113.7" fill="#525252" transform="matrix(1.00, 0.00, -0.00, -1.00, 714.7, 651.4)"> </text><text xml:space="preserve" font-family="GillSans-Light,Gill Sans" font-size="31.2" fill="#525252" transform="matrix(1.00, 0.00, -0.00, -1.00, 271.3, 507.7)">•</text><text xml:space="preserve" font-family="GillSans-Light,Gill Sans" font-size="38.0" fill="#525252" transform="matrix(1.00, 0.00, -0.00, -1.00, 305.2, 505.4)">S</text><text xml:space="preserve" font-family="GillSans-Light,Gill Sans" font-size="38.0" fill="#525252" transform="matrix(1.00, 0.00, -0.00, -1.00, 323.0, 505.4)">t</text><text xml:space="preserve" font-family="GillSans-Light,Gill Sans" font-size="38.0" fill="#525252" transform="matrix(1.00, 0.00, -0.00, -1.00, 334.5, 505.4)">r</text><text xml:space="preserve" font-family="GillSans-Light,Gill Sans" font-size="38.0" fill="#525252" transform="matrix(1.00, 0.00, -0.00, -1.00, 347.1, 505.4)">e</text><text xml:space="preserve" font-family="GillSans-Light,Gill Sans" font-size="38.0" fill="#525252" transform="matrix(1.00, 0.00, -0.00, -1.00, 365.3, 505.4)">a</text><text xml:space="preserve" font-family="GillSans-Light,Gill Sans" font-size="38.0" fill="#525252" transform="matrix(1.00, 0.00, -0.00, -1.00, 381.6, 505.4)">m</text><text xml:space="preserve" font-family="GillSans-Light,Gill Sans" font-size="38.0" fill="#525252" transform="matrix(1.00, 0.00, -0.00, -1.00, 410.8, 505.4)">a</text><text xml:space="preserve" font-family="GillSans-Light,Gill Sans" font-size="38.0" fill="#525252" transform="matrix(1.00, 0.00, -0.00, -1.00, 427.1, 505.4)">b</text><text xml:space="preserve" font-family="GillSans-Light,Gill Sans" font-size="38.0" fill="#525252" transform="matrix(1.00, 0.00, -0.00, -1.00, 445.8, 505.4)">l</text><text xml:space="preserve" font-family="GillSans-Light,Gill Sans" font-size="38.0" fill="#525252" transform="matrix(1.00, 0.00, -0.00, -1.00, 453.0, 505.4)">e</text><text xml:space="preserve" font-family="GillSans-Light,Gill Sans" font-size="38.0" fill="#525252" transform="matrix(1.00, 0.00, -0.00, -1.00, 471.2, 505.4)"> </text><text xml:space="preserve" font-family="GillSans-Light,Gill Sans" font-size="38.0" fill="#525252" transform="matrix(1.00, 0.00, -0.00, -1.00, 481.7, 505.4)">U</text><text xml:space="preserve" font-family="GillSans-Light,Gill Sans" font-size="38.0" fill="#525252" transform="matrix(1.00, 0.00, -0.00, -1.00, 508.3, 505.4)">N</text><text xml:space="preserve" font-family="GillSans-Light,Gill Sans" font-size="38.0" fill="#525252" transform="matrix(1.00, 0.00, -0.00, -1.00, 537.6, 505.4)">I</text><text xml:space="preserve" font-family="GillSans-Light,Gill Sans" font-size="38.0" fill="#525252" transform="matrix(1.00, 0.00, -0.00, -1.00, 545.5, 505.4)">X</text><text xml:space="preserve" font-family="GillSans-Light,Gill Sans" font-size="38.0" fill="#525252" transform="matrix(1.00, 0.00, -0.00, -1.00, 571.6, 505.4)"> </text><text xml:space="preserve" font-family="GillSans-Light,Gill Sans" font-size="38.0" fill="#525252" transform="matrix(1.00, 0.00, -0.00, -1.00, 582.2, 505.4)">c</text><text xml:space="preserve" font-family="GillSans-Light,Gill Sans" font-size="38.0" fill="#525252" transform="matrix(1.00, 0.00, -0.00, -1.00, 598.0, 505.4)">o</text><text xml:space="preserve" font-family="GillSans-Light,Gill Sans" font-size="38.0" fill="#525252" transform="matrix(1.00, 0.00, -0.00, -1.00, 618.6, 505.4)">m</text><text xml:space="preserve" font-family="GillSans-Light,Gill Sans" font-size="38.0" fill="#525252" transform="matrix(1.00, 0.00, -0.00, -1.00, 647.9, 505.4)">m</text><text xml:space="preserve" font-family="GillSans-Light,Gill Sans" font-size="38.0" fill="#525252" transform="matrix(1.00, 0.00, -0.00, -1.00, 677.2, 505.4)">a</text><text xml:space="preserve" font-family="GillSans-Light,Gill Sans" font-size="38.0" fill="#525252" transform="matrix(1.00, 0.00, -0.00, -1.00, 693.4, 505.4)">n</text><text xml:space="preserve" font-family="GillSans-Light,Gill Sans" font-size="38.0" fill="#525252" transform="matrix(1.00, 0.00, -0.00, -1.00, 712.1, 505.4)">d</text><text xml:space="preserve" font-family="GillSans-Light,Gill Sans" font-size="38.0" fill="#525252" transform="matrix(1.00, 0.00, -0.00, -1.00, 731.4, 505.4)"> </text><text xml:space="preserve" font-family="GillSans-Light,Gill Sans" font-size="38.0" fill="#525252" transform="matrix(1.00, 0.00, -0.00, -1.00, 742.0, 505.4)">l</text><text xml:space="preserve" font-family="GillSans-Light,Gill Sans" font-size="38.0" fill="#525252" transform="matrix(1.00, 0.00, -0.00, -1.00, 749.1, 505.4)">i</text><text xml:space="preserve" font-family="GillSans-Light,Gill Sans" font-size="38.0" fill="#525252" transform="matrix(1.00, 0.00, -0.00, -1.00, 756.3, 505.4)">n</text><text xml:space="preserve" font-family="GillSans-Light,Gill Sans" font-size="38.0" fill="#525252" transform="matrix(1.00, 0.00, -0.00, -1.00, 774.9, 505.4)">e</text><text xml:space="preserve" font-family="GillSans-Light,Gill Sans" font-size="38.0" fill="#525252" transform="matrix(1.00, 0.00, -0.00, -1.00, 793.1, 505.4)"> </text><text xml:space="preserve" font-family="GillSans-Light,Gill Sans" font-size="38.0" fill="#525252" transform="matrix(1.00, 0.00, -0.00, -1.00, 803.6, 505.4)">t</text><text xml:space="preserve" font-family="GillSans-Light,Gill Sans" font-size="38.0" fill="#525252" transform="matrix(1.00, 0.00, -0.00, -1.00, 815.1, 505.4)">o</text><text xml:space="preserve" font-family="GillSans-Light,Gill Sans" font-size="38.0" fill="#525252" transform="matrix(1.00, 0.00, -0.00, -1.00, 835.7, 505.4)">o</text><text xml:space="preserve" font-family="GillSans-Light,Gill Sans" font-size="38.0" fill="#525252" transform="matrix(1.00, 0.00, -0.00, -1.00, 856.3, 505.4)">l</text><text xml:space="preserve" font-family="GillSans-Light,Gill Sans" font-size="38.0" fill="#525252" transform="matrix(1.00, 0.00, -0.00, -1.00, 863.4, 505.4)">s</text><text xml:space="preserve" font-family="GillSans-Light,Gill Sans" font-size="31.2" fill="#525252" transform="matrix(1.00, 0.00, -0.00, -1.00, 271.3, 456.1)">•</text><text xml:space="preserve" font-family="GillSans-Light,Gill Sans" font-size="38.0" fill="#525252" transform="matrix(1.00, 0.00, -0.00, -1.00, 305.2, 453.8)">J</text><text xml:space="preserve" font-family="GillSans-Light,Gill Sans" font-size="38.0" fill="#525252" transform="matrix(1.00, 0.00, -0.00, -1.00, 313.1, 453.8)">a</text><text xml:space="preserve" font-family="GillSans-Light,Gill Sans" font-size="38.0" fill="#525252" transform="matrix(1.00, 0.00, -0.00, -1.00, 328.4, 453.8)">v</text><text xml:space="preserve" font-family="GillSans-Light,Gill Sans" font-size="38.0" fill="#525252" transform="matrix(1.00, 0.00, -0.00, -1.00, 344.6, 453.8)">a</text><text xml:space="preserve" font-family="GillSans-Light,Gill Sans" font-size="38.0" fill="#525252" transform="matrix(1.00, 0.00, -0.00, -1.00, 360.8, 453.8)">S</text><text xml:space="preserve" font-family="GillSans-Light,Gill Sans" font-size="38.0" fill="#525252" transform="matrix(1.00, 0.00, -0.00, -1.00, 378.6, 453.8)">c</text><text xml:space="preserve" font-family="GillSans-Light,Gill Sans" font-size="38.0" fill="#525252" transform="matrix(1.00, 0.00, -0.00, -1.00, 394.5, 453.8)">r</text><text xml:space="preserve" font-family="GillSans-Light,Gill Sans" font-size="38.0" fill="#525252" transform="matrix(1.00, 0.00, -0.00, -1.00, 408.1, 453.8)">i</text><text xml:space="preserve" font-family="GillSans-Light,Gill Sans" font-size="38.0" fill="#525252" transform="matrix(1.00, 0.00, -0.00, -1.00, 415.2, 453.8)">p</text><text xml:space="preserve" font-family="GillSans-Light,Gill Sans" font-size="38.0" fill="#525252" transform="matrix(1.00, 0.00, -0.00, -1.00, 434.6, 453.8)">t</text><text xml:space="preserve" font-family="GillSans-Light,Gill Sans" font-size="38.0" fill="#525252" transform="matrix(1.00, 0.00, -0.00, -1.00, 446.0, 453.8)"> </text><text xml:space="preserve" font-family="GillSans-Light,Gill Sans" font-size="38.0" fill="#525252" transform="matrix(1.00, 0.00, -0.00, -1.00, 456.6, 453.8)">/</text><text xml:space="preserve" font-family="GillSans-Light,Gill Sans" font-size="38.0" fill="#525252" transform="matrix(1.00, 0.00, -0.00, -1.00, 467.2, 453.8)"> </text><text xml:space="preserve" font-family="GillSans-Light,Gill Sans" font-size="38.0" fill="#525252" transform="matrix(1.00, 0.00, -0.00, -1.00, 477.8, 453.8)">N</text><text xml:space="preserve" font-family="GillSans-Light,Gill Sans" font-size="38.0" fill="#525252" transform="matrix(1.00, 0.00, -0.00, -1.00, 507.1, 453.8)">o</text><text xml:space="preserve" font-family="GillSans-Light,Gill Sans" font-size="38.0" fill="#525252" transform="matrix(1.00, 0.00, -0.00, -1.00, 527.7, 453.8)">d</text><text xml:space="preserve" font-family="GillSans-Light,Gill Sans" font-size="38.0" fill="#525252" transform="matrix(1.00, 0.00, -0.00, -1.00, 547.0, 453.8)">e</text><text xml:space="preserve" font-family="GillSans-Light,Gill Sans" font-size="38.0" fill="#525252" transform="matrix(1.00, 0.00, -0.00, -1.00, 566.4, 453.8)">.</text><text xml:space="preserve" font-family="GillSans-Light,Gill Sans" font-size="38.0" fill="#525252" transform="matrix(1.00, 0.00, -0.00, -1.00, 573.1, 453.8)">j</text><text xml:space="preserve" font-family="GillSans-Light,Gill Sans" font-size="38.0" fill="#525252" transform="matrix(1.00, 0.00, -0.00, -1.00, 580.2, 453.8)">s</text><text xml:space="preserve" font-family="GillSans-Light,Gill Sans" font-size="38.0" fill="#525252" transform="matrix(1.00, 0.00, -0.00, -1.00, 593.7, 453.8)"> </text><text xml:space="preserve" font-family="GillSans-Light,Gill Sans" font-size="38.0" fill="#525252" transform="matrix(1.00, 0.00, -0.00, -1.00, 602.0, 453.8)">A</text><text xml:space="preserve" font-family="GillSans-Light,Gill Sans" font-size="38.0" fill="#525252" transform="matrix(1.00, 0.00, -0.00, -1.00, 627.3, 453.8)">P</text><text xml:space="preserve" font-family="GillSans-Light,Gill Sans" font-size="38.0" fill="#525252" transform="matrix(1.00, 0.00, -0.00, -1.00, 646.7, 453.8)">I</text><text xml:space="preserve" font-family="GillSans-Light,Gill Sans" font-size="31.2" fill="#525252" transform="matrix(1.00, 0.00, -0.00, -1.00, 271.3, 404.5)">•</text><text xml:space="preserve" font-family="GillSans-Light,Gill Sans" font-size="38.0" fill="#525252" transform="matrix(1.00, 0.00, -0.00, -1.00, 305.2, 402.2)">B</text><text xml:space="preserve" font-family="GillSans-Light,Gill Sans" font-size="38.0" fill="#525252" transform="matrix(1.00, 0.00, -0.00, -1.00, 325.4, 402.2)">i</text><text xml:space="preserve" font-family="GillSans-Light,Gill Sans" font-size="38.0" fill="#525252" transform="matrix(1.00, 0.00, -0.00, -1.00, 332.5, 402.2)">o</text><text xml:space="preserve" font-family="GillSans-Light,Gill Sans" font-size="38.0" fill="#525252" transform="matrix(1.00, 0.00, -0.00, -1.00, 353.1, 402.2)">i</text><text xml:space="preserve" font-family="GillSans-Light,Gill Sans" font-size="38.0" fill="#525252" transform="matrix(1.00, 0.00, -0.00, -1.00, 360.2, 402.2)">n</text><text xml:space="preserve" font-family="GillSans-Light,Gill Sans" font-size="38.0" fill="#525252" transform="matrix(1.00, 0.00, -0.00, -1.00, 378.9, 402.2)">f</text><text xml:space="preserve" font-family="GillSans-Light,Gill Sans" font-size="38.0" fill="#525252" transform="matrix(1.00, 0.00, -0.00, -1.00, 387.6, 402.2)">o</text><text xml:space="preserve" font-family="GillSans-Light,Gill Sans" font-size="38.0" fill="#525252" transform="matrix(1.00, 0.00, -0.00, -1.00, 408.2, 402.2)">r</text><text xml:space="preserve" font-family="GillSans-Light,Gill Sans" font-size="38.0" fill="#525252" transform="matrix(1.00, 0.00, -0.00, -1.00, 421.8, 402.2)">m</text><text xml:space="preserve" font-family="GillSans-Light,Gill Sans" font-size="38.0" fill="#525252" transform="matrix(1.00, 0.00, -0.00, -1.00, 451.1, 402.2)">a</text><text xml:space="preserve" font-family="GillSans-Light,Gill Sans" font-size="38.0" fill="#525252" transform="matrix(1.00, 0.00, -0.00, -1.00, 467.3, 402.2)">t</text><text xml:space="preserve" font-family="GillSans-Light,Gill Sans" font-size="38.0" fill="#525252" transform="matrix(1.00, 0.00, -0.00, -1.00, 478.8, 402.2)">i</text><text xml:space="preserve" font-family="GillSans-Light,Gill Sans" font-size="38.0" fill="#525252" transform="matrix(1.00, 0.00, -0.00, -1.00, 486.0, 402.2)">c</text><text xml:space="preserve" font-family="GillSans-Light,Gill Sans" font-size="38.0" fill="#525252" transform="matrix(1.00, 0.00, -0.00, -1.00, 501.8, 402.2)"> </text><text xml:space="preserve" font-family="GillSans-Light,Gill Sans" font-size="38.0" fill="#525252" transform="matrix(1.00, 0.00, -0.00, -1.00, 512.3, 402.2)">o</text><text xml:space="preserve" font-family="GillSans-Light,Gill Sans" font-size="38.0" fill="#525252" transform="matrix(1.00, 0.00, -0.00, -1.00, 532.9, 402.2)">n</text><text xml:space="preserve" font-family="GillSans-Light,Gill Sans" font-size="38.0" fill="#525252" transform="matrix(1.00, 0.00, -0.00, -1.00, 551.6, 402.2)"> </text><text xml:space="preserve" font-family="GillSans-Light,Gill Sans" font-size="38.0" fill="#525252" transform="matrix(1.00, 0.00, -0.00, -1.00, 562.1, 402.2)">t</text><text xml:space="preserve" font-family="GillSans-Light,Gill Sans" font-size="38.0" fill="#525252" transform="matrix(1.00, 0.00, -0.00, -1.00, 573.6, 402.2)">h</text><text xml:space="preserve" font-family="GillSans-Light,Gill Sans" font-size="38.0" fill="#525252" transform="matrix(1.00, 0.00, -0.00, -1.00, 592.2, 402.2)">e</text><text xml:space="preserve" font-family="GillSans-Light,Gill Sans" font-size="38.0" fill="#525252" transform="matrix(1.00, 0.00, -0.00, -1.00, 610.4, 402.2)"> </text><text xml:space="preserve" font-family="GillSans-Light,Gill Sans" font-size="38.0" fill="#525252" transform="matrix(1.00, 0.00, -0.00, -1.00, 621.0, 402.2)">s</text><text xml:space="preserve" font-family="GillSans-Light,Gill Sans" font-size="38.0" fill="#525252" transform="matrix(1.00, 0.00, -0.00, -1.00, 634.4, 402.2)">e</text><text xml:space="preserve" font-family="GillSans-Light,Gill Sans" font-size="38.0" fill="#525252" transform="matrix(1.00, 0.00, -0.00, -1.00, 652.6, 402.2)">r</text><text xml:space="preserve" font-family="GillSans-Light,Gill Sans" font-size="38.0" fill="#525252" transform="matrix(1.00, 0.00, -0.00, -1.00, 667.9, 402.2)">v</text><text xml:space="preserve" font-family="GillSans-Light,Gill Sans" font-size="38.0" fill="#525252" transform="matrix(1.00, 0.00, -0.00, -1.00, 683.6, 402.2)">e</text><text xml:space="preserve" font-family="GillSans-Light,Gill Sans" font-size="38.0" fill="#525252" transform="matrix(1.00, 0.00, -0.00, -1.00, 701.8, 402.2)">r</text><text xml:space="preserve" font-family="GillSans-Light,Gill Sans" font-size="38.0" fill="#525252" transform="matrix(1.00, 0.00, -0.00, -1.00, 714.4, 402.2)"> </text><text xml:space="preserve" font-family="GillSans-Light,Gill Sans" font-size="38.0" fill="#525252" transform="matrix(1.00, 0.00, -0.00, -1.00, 725.0, 402.2)">a</text><text xml:space="preserve" font-family="GillSans-Light,Gill Sans" font-size="38.0" fill="#525252" transform="matrix(1.00, 0.00, -0.00, -1.00, 741.2, 402.2)">n</text><text xml:space="preserve" font-family="GillSans-Light,Gill Sans" font-size="38.0" fill="#525252" transform="matrix(1.00, 0.00, -0.00, -1.00, 759.8, 402.2)">d</text><text xml:space="preserve" font-family="GillSans-Light,Gill Sans" font-size="38.0" fill="#525252" transform="matrix(1.00, 0.00, -0.00, -1.00, 779.2, 402.2)"> </text><text xml:space="preserve" font-family="GillSans-Light,Gill Sans" font-size="38.0" fill="#525252" transform="matrix(1.00, 0.00, -0.00, -1.00, 789.7, 402.2)">b</text><text xml:space="preserve" font-family="GillSans-Light,Gill Sans" font-size="38.0" fill="#525252" transform="matrix(1.00, 0.00, -0.00, -1.00, 809.1, 402.2)">r</text><text xml:space="preserve" font-family="GillSans-Light,Gill Sans" font-size="38.0" fill="#525252" transform="matrix(1.00, 0.00, -0.00, -1.00, 821.8, 402.2)">o</text><text xml:space="preserve" font-family="GillSans-Light,Gill Sans" font-size="38.0" fill="#525252" transform="matrix(1.00, 0.00, -0.00, -1.00, 841.8, 402.2)">w</text><text xml:space="preserve" font-family="GillSans-Light,Gill Sans" font-size="38.0" fill="#525252" transform="matrix(1.00, 0.00, -0.00, -1.00, 868.7, 402.2)">s</text><text xml:space="preserve" font-family="GillSans-Light,Gill Sans" font-size="38.0" fill="#525252" transform="matrix(1.00, 0.00, -0.00, -1.00, 882.1, 402.2)">e</text><text xml:space="preserve" font-family="GillSans-Light,Gill Sans" font-size="38.0" fill="#525252" transform="matrix(1.00, 0.00, -0.00, -1.00, 900.3, 402.2)">r</text><text xml:space="preserve" font-family="LucidaGrande,Lucida Grande" font-size="38.0" fill="#525252" transform="matrix(1.00, 0.00, -0.00, -1.00, 913.0, 402.2)"> </text><image xlink:href="D31F614001BEFEE21D488B26E4C98418.png" width="1000.00" height="1155.00" transform="matrix(0.04, 0.00, -0.00, -0.04, 784.0, 64.0)"></image><image xlink:href="EC55AE19C262454EB3CA26ADC89FC696.png" width="600.00" height="694.00" transform="matrix(0.40, 0.00, -0.00, -0.40, 16.0, 602.0)"></image><text xml:space="preserve" font-family="GillSans-Light,Gill Sans" font-size="36.0" fill="#525252" transform="matrix(1.00, 0.00, -0.00, -1.00, 222.1, 75.5)">C</text><text xml:space="preserve" font-family="GillSans-Light,Gill Sans" font-size="36.0" fill="#525252" transform="matrix(1.00, 0.00, -0.00, -1.00, 246.5, 75.5)">o</text><text xml:space="preserve" font-family="GillSans-Light,Gill Sans" font-size="36.0" fill="#525252" transform="matrix(1.00, 0.00, -0.00, -1.00, 266.0, 75.5)">m</text><text xml:space="preserve" font-family="GillSans-Light,Gill Sans" font-size="36.0" fill="#525252" transform="matrix(1.00, 0.00, -0.00, -1.00, 293.8, 75.5)">m</text><text xml:space="preserve" font-family="GillSans-Light,Gill Sans" font-size="36.0" fill="#525252" transform="matrix(1.00, 0.00, -0.00, -1.00, 321.0, 75.5)">u</text><text xml:space="preserve" font-family="GillSans-Light,Gill Sans" font-size="36.0" fill="#525252" transform="matrix(1.00, 0.00, -0.00, -1.00, 338.6, 75.5)">n</text><text xml:space="preserve" font-family="GillSans-Light,Gill Sans" font-size="36.0" fill="#525252" transform="matrix(1.00, 0.00, -0.00, -1.00, 356.3, 75.5)">i</text><text xml:space="preserve" font-family="GillSans-Light,Gill Sans" font-size="36.0" fill="#525252" transform="matrix(1.00, 0.00, -0.00, -1.00, 363.0, 75.5)">t</text><text xml:space="preserve" font-family="GillSans-Light,Gill Sans" font-size="36.0" fill="#525252" transform="matrix(1.00, 0.00, -0.00, -1.00, 373.9, 75.5)">y</text><text xml:space="preserve" font-family="GillSans-Light,Gill Sans" font-size="36.0" fill="#525252" transform="matrix(1.00, 0.00, -0.00, -1.00, 0.5, 76.1)"> </text><text xml:space="preserve" font-family="GillSans-Light,Gill Sans" font-size="36.0" fill="#525252" transform="matrix(1.00, 0.00, -0.00, -1.00, 10.5, 76.1)">C</text><text xml:space="preserve" font-family="GillSans-Light,Gill Sans" font-size="36.0" fill="#525252" transform="matrix(1.00, 0.00, -0.00, -1.00, 34.9, 76.1)">o</text><text xml:space="preserve" font-family="GillSans-Light,Gill Sans" font-size="36.0" fill="#525252" transform="matrix(1.00, 0.00, -0.00, -1.00, 54.4, 76.1)">r</text><text xml:space="preserve" font-family="GillSans-Light,Gill Sans" font-size="36.0" fill="#525252" transform="matrix(1.00, 0.00, -0.00, -1.00, 66.4, 76.1)">e</text><text xml:space="preserve" font-family="GillSans-Light,Gill Sans" font-size="36.0" fill="#525252" transform="matrix(1.00, 0.00, -0.00, -1.00, 83.6, 76.1)"> </text><text xml:space="preserve" font-family="GillSans-Light,Gill Sans" font-size="36.0" fill="#525252" transform="matrix(1.00, 0.00, -0.00, -1.00, 93.6, 76.1)">t</text><text xml:space="preserve" font-family="GillSans-Light,Gill Sans" font-size="36.0" fill="#525252" transform="matrix(1.00, 0.00, -0.00, -1.00, 104.5, 76.1)">e</text><text xml:space="preserve" font-family="GillSans-Light,Gill Sans" font-size="36.0" fill="#525252" transform="matrix(1.00, 0.00, -0.00, -1.00, 121.7, 76.1)">a</text><text xml:space="preserve" font-family="GillSans-Light,Gill Sans" font-size="36.0" fill="#525252" transform="matrix(1.00, 0.00, -0.00, -1.00, 137.1, 76.1)">m</text><g><clipPath id="clip0x600000cad4a0"><path d="M 220.0 59.0 L 260.0 59.0 L 260.0 19.0 L 220.0 19.0 Z M 220.2 59.0 "></path></clipPath><g clip-path="url(#clip0x600000cad4a0)"><g><clipPath id="clip0x600000eb3020"><path d="M 220.2 19.0 L 260.2 19.0 L 260.2 59.0 L 220.2 59.0 Z M 220.2 19.0 "></path></clipPath><g clip-path="url(#clip0x600000eb3020)"><image xlink:href="BE23DB4B275AF6AC296FC159C0F1F1D8.png" width="256.00" height="256.00" transform="matrix(0.16, 0.00, -0.00, -0.16, 220.0, 59.0)"></image></g></g></g></g><g><clipPath id="clip0x608000eb2300"><path d="M 260.0 19.1 L 299.8 19.1 L 299.8 58.9 L 260.0 58.9 Z M 260.0 19.1 "></path></clipPath><g clip-path="url(#clip0x608000eb2300)"><image xlink:href="33C8439010424CA9F80DC1E4F40F6FBE.jpeg" width="460.00" height="460.00" transform="matrix(0.09, 0.00, -0.00, -0.09, 260.0, 59.0)"></image></g></g><g><clipPath id="clip0x600000cb04a0"><path d="M 299.4 19.3 L 338.8 19.3 L 338.8 58.7 L 299.4 58.7 Z M 299.4 19.3 "></path></clipPath><g clip-path="url(#clip0x600000cb04a0)"><image xlink:href="A5F2A1263B78A793B46C28B15AD0F5FD.jpeg" width="430.00" height="430.00" transform="matrix(0.09, 0.00, -0.00, -0.09, 299.0, 59.0)"></image></g></g><g><clipPath id="clip0x600000cb8180"><path d="M 338.9 19.0 L 378.9 19.0 L 378.9 59.0 L 338.9 59.0 Z M 338.9 19.0 "></path></clipPath><g clip-path="url(#clip0x600000cb8180)"><image xlink:href="7BA5A08B917B6A7C3D6CE70B72FA9779.jpeg" width="460.00" height="460.00" transform="matrix(0.09, 0.00, -0.00, -0.09, 339.0, 59.0)"></image></g></g><g><clipPath id="clip0x6000010aeee0"><path d="M 377.6 19.0 L 417.5 19.0 L 417.5 59.0 L 377.6 59.0 Z M 377.6 19.0 "></path></clipPath><g clip-path="url(#clip0x6000010aeee0)"><image xlink:href="8227A42FFF118ED1A77354BD240A2416.jpeg" width="460.00" height="460.00" transform="matrix(0.09, 0.00, -0.00, -0.09, 378.0, 59.0)"></image></g></g><g><clipPath id="clip0x600000ebda60"><path d="M 418.0 19.1 L 458.0 19.1 L 458.0 59.0 L 418.0 59.0 Z M 418.0 19.1 "></path></clipPath><g clip-path="url(#clip0x600000ebda60)"><image xlink:href="BED2342C3A7D3CC4D0EBFEE1843A32C3.jpeg" width="460.00" height="460.00" transform="matrix(0.09, 0.00, -0.00, -0.09, 418.0, 59.0)"></image></g></g><g><clipPath id="clip0x6000010a7da0"><path d="M 456.7 19.0 L 496.7 19.0 L 496.7 59.0 L 456.7 59.0 Z M 456.7 19.0 "></path></clipPath><g clip-path="url(#clip0x6000010a7da0)"><image xlink:href="D573A8970291DE86C6ECD0CB2FE687EF.png" width="420.00" height="420.00" transform="matrix(0.10, 0.00, -0.00, -0.10, 457.0, 59.0)"></image></g></g><g><clipPath id="clip0x600000ca6b40"><path d="M 497.1 19.0 L 537.1 19.0 L 537.1 59.0 L 497.1 59.0 Z M 497.1 19.0 "></path></clipPath><g clip-path="url(#clip0x600000ca6b40)"><image xlink:href="5CB28B2F2EB6B7A53D751DADD9ABAACD.jpeg" width="460.00" height="460.00" transform="matrix(0.09, 0.00, -0.00, -0.09, 497.0, 59.0)"></image></g></g><g><clipPath id="clip0x608000ca2760"><path d="M 537.4 19.2 L 577.1 19.2 L 577.1 58.9 L 537.4 58.9 Z M 537.4 19.2 "></path></clipPath><g clip-path="url(#clip0x608000ca2760)"><image xlink:href="6E89595B38F42536F80C4F7576A57775.png" width="420.00" height="420.00" transform="matrix(0.10, 0.00, -0.00, -0.10, 537.0, 59.0)"></image></g></g><g><clipPath id="clip0x608000aa42c0"><path d="M 576.2 19.3 L 615.6 19.3 L 615.6 58.7 L 576.2 58.7 Z M 576.2 19.3 "></path></clipPath><g clip-path="url(#clip0x608000aa42c0)"><image xlink:href="C53FEDD16DC9FB140F129FAD1E881D33.jpeg" width="460.00" height="460.00" transform="matrix(0.09, 0.00, -0.00, -0.09, 576.0, 59.0)"></image></g></g><g><clipPath id="clip0x600000cabac0"><path d="M 615.8 19.2 L 655.4 19.2 L 655.4 58.9 L 615.8 58.9 Z M 615.8 19.2 "></path></clipPath><g clip-path="url(#clip0x600000cabac0)"><image xlink:href="7E83A4AE23F68C08B82980F072C7C8BD.jpeg" width="460.00" height="460.00" transform="matrix(0.08, 0.00, -0.00, -0.09, 616.0, 59.0)"></image></g></g><g><clipPath id="clip0x600000ea4ce0"><path d="M 655.4 19.2 L 695.0 19.2 L 695.0 58.9 L 655.4 58.9 Z M 655.4 19.2 "></path></clipPath><g clip-path="url(#clip0x600000ea4ce0)"><image xlink:href="A4428A0574ED12AA3C91F70E5A37AB4C.jpeg" width="460.00" height="460.00" transform="matrix(0.09, 0.00, -0.00, -0.09, 655.0, 59.0)"></image></g></g><g><clipPath id="clip0x608000eb70a0"><path d="M 694.6 19.2 L 734.2 19.2 L 734.2 58.9 L 694.6 58.9 Z M 694.6 19.2 "></path></clipPath><g clip-path="url(#clip0x608000eb70a0)"><image xlink:href="4DFD2EBD2DB8C23201A9CFE1A5D14513.png" width="460.00" height="460.00" transform="matrix(0.08, 0.00, -0.00, -0.09, 695.0, 59.0)"></image></g></g><g><clipPath id="clip0x600000ca2d00"><path d="M 734.8 19.2 L 774.5 19.2 L 774.5 58.9 L 734.8 58.9 Z M 734.8 19.2 "></path></clipPath><g clip-path="url(#clip0x600000ca2d00)"><image xlink:href="98FCBD5455A82659264C55524CC27426.jpeg" width="460.00" height="460.00" transform="matrix(0.08, 0.00, -0.00, -0.09, 735.0, 59.0)"></image></g></g><g><clipPath id="clip0x608000cbe660"><path d="M 130.5 19.0 L 170.4 19.0 L 170.4 59.0 L 130.5 59.0 Z M 130.5 19.0 "></path></clipPath><g clip-path="url(#clip0x608000cbe660)"><image xlink:href="A0D457DF136D05BEF19D4B438453CA9E.jpeg" width="460.00" height="460.00" transform="matrix(0.09, 0.00, -0.00, -0.09, 130.0, 59.0)"></image></g></g><g><clipPath id="clip0x600000cba1c0"><path d="M 170.7 19.0 L 210.6 19.0 L 210.6 59.0 L 170.7 59.0 Z M 170.7 19.0 "></path></clipPath><g clip-path="url(#clip0x600000cba1c0)"><image xlink:href="FB588D99F6314EC2FB3EFA1D8B04CD20.jpeg" width="460.00" height="460.00" transform="matrix(0.09, 0.00, -0.00, -0.09, 171.0, 59.0)"></image></g></g><g><clipPath id="clip0x6000010a1980"><path d="M 11.5 19.0 L 51.4 19.0 L 51.4 59.0 L 11.5 59.0 Z M 11.5 19.0 "></path></clipPath><g clip-path="url(#clip0x6000010a1980)"><image xlink:href="B6F28E42EE55CFE13C2E1813AB0C5179.png" width="460.00" height="460.00" transform="matrix(0.09, 0.00, -0.00, -0.09, 11.0, 59.0)"></image></g></g><g><clipPath id="clip0x608000eb9a40"><path d="M 90.7 19.0 L 130.7 19.0 L 130.7 59.0 L 90.7 59.0 Z M 90.7 19.0 "></path></clipPath><g clip-path="url(#clip0x608000eb9a40)"><image xlink:href="86984DDFD58C6BF7D1D389C247849086.png" width="460.00" height="460.00" transform="matrix(0.09, 0.00, -0.00, -0.09, 91.0, 59.0)"></image></g></g><g><clipPath id="clip0x608000eb19a0"><path d="M 51.0 59.0 L 91.0 59.0 L 91.0 19.0 L 51.0 19.0 Z M 51.4 59.0 "></path></clipPath><g clip-path="url(#clip0x608000eb19a0)"><g><clipPath id="clip0x608000eb11c0"><path d="M 51.4 19.0 L 91.4 19.0 L 91.4 59.0 L 51.4 59.0 Z M 51.4 19.0 "></path></clipPath><g clip-path="url(#clip0x608000eb11c0)"><image xlink:href="602DA86A30AAE4E8F71EE2B44B251ED0.jpeg" width="640.00" height="360.00" transform="matrix(0.12, 0.00, -0.00, -0.12, 31.0, 59.0)"></image></g></g></g></g><text xml:space="preserve" font-family="GillSans-SemiBoldItalic,Gill Sans" font-style="italic" font-weight="bold" font-size="38.0" fill="#222222" transform="matrix(1.00, 0.00, -0.00, -1.00, 216.1, 576.3)">“</text><text xml:space="preserve" font-family="GillSans-SemiBoldItalic,Gill Sans" font-style="italic" font-weight="bold" font-size="38.0" fill="#222222" transform="matrix(1.00, 0.00, -0.00, -1.00, 233.0, 576.3)">M</text><text xml:space="preserve" font-family="GillSans-SemiBoldItalic,Gill Sans" font-style="italic" font-weight="bold" font-size="38.0" fill="#222222" transform="matrix(1.00, 0.00, -0.00, -1.00, 267.1, 576.3)">o</text><text xml:space="preserve" font-family="GillSans-SemiBoldItalic,Gill Sans" font-style="italic" font-weight="bold" font-size="38.0" fill="#222222" transform="matrix(1.00, 0.00, -0.00, -1.00, 285.9, 576.3)">d</text><text xml:space="preserve" font-family="GillSans-SemiBoldItalic,Gill Sans" font-style="italic" font-weight="bold" font-size="38.0" fill="#222222" transform="matrix(1.00, 0.00, -0.00, -1.00, 305.4, 576.3)">u</text><text xml:space="preserve" font-family="GillSans-SemiBoldItalic,Gill Sans" font-style="italic" font-weight="bold" font-size="38.0" fill="#222222" transform="matrix(1.00, 0.00, -0.00, -1.00, 324.5, 576.3)">l</text><text xml:space="preserve" font-family="GillSans-SemiBoldItalic,Gill Sans" font-style="italic" font-weight="bold" font-size="38.0" fill="#222222" transform="matrix(1.00, 0.00, -0.00, -1.00, 333.2, 576.3)">a</text><text xml:space="preserve" font-family="GillSans-SemiBoldItalic,Gill Sans" font-style="italic" font-weight="bold" font-size="38.0" fill="#222222" transform="matrix(1.00, 0.00, -0.00, -1.00, 352.7, 576.3)">r</text><text xml:space="preserve" font-family="GillSans-SemiBoldItalic,Gill Sans" font-style="italic" font-weight="bold" font-size="38.0" fill="#222222" transform="matrix(1.00, 0.00, -0.00, -1.00, 366.3, 576.3)"> </text><text xml:space="preserve" font-family="GillSans-SemiBoldItalic,Gill Sans" font-style="italic" font-weight="bold" font-size="38.0" fill="#222222" transform="matrix(1.00, 0.00, -0.00, -1.00, 376.8, 576.3)">a</text><text xml:space="preserve" font-family="GillSans-SemiBoldItalic,Gill Sans" font-style="italic" font-weight="bold" font-size="38.0" fill="#222222" transform="matrix(1.00, 0.00, -0.00, -1.00, 396.3, 576.3)">n</text><text xml:space="preserve" font-family="GillSans-SemiBoldItalic,Gill Sans" font-style="italic" font-weight="bold" font-size="38.0" fill="#222222" transform="matrix(1.00, 0.00, -0.00, -1.00, 415.5, 576.3)">d</text><text xml:space="preserve" font-family="GillSans-SemiBoldItalic,Gill Sans" font-style="italic" font-weight="bold" font-size="38.0" fill="#222222" transform="matrix(1.00, 0.00, -0.00, -1.00, 435.1, 576.3)"> </text><text xml:space="preserve" font-family="GillSans-SemiBoldItalic,Gill Sans" font-style="italic" font-weight="bold" font-size="38.0" fill="#222222" transform="matrix(1.00, 0.00, -0.00, -1.00, 445.6, 576.3)">u</text><text xml:space="preserve" font-family="GillSans-SemiBoldItalic,Gill Sans" font-style="italic" font-weight="bold" font-size="38.0" fill="#222222" transform="matrix(1.00, 0.00, -0.00, -1.00, 464.7, 576.3)">n</text><text xml:space="preserve" font-family="GillSans-SemiBoldItalic,Gill Sans" font-style="italic" font-weight="bold" font-size="38.0" fill="#222222" transform="matrix(1.00, 0.00, -0.00, -1.00, 484.0, 576.3)">i</text><text xml:space="preserve" font-family="GillSans-SemiBoldItalic,Gill Sans" font-style="italic" font-weight="bold" font-size="38.0" fill="#222222" transform="matrix(1.00, 0.00, -0.00, -1.00, 492.7, 576.3)">v</text><text xml:space="preserve" font-family="GillSans-SemiBoldItalic,Gill Sans" font-style="italic" font-weight="bold" font-size="38.0" fill="#222222" transform="matrix(1.00, 0.00, -0.00, -1.00, 508.0, 576.3)">e</text><text xml:space="preserve" font-family="GillSans-SemiBoldItalic,Gill Sans" font-style="italic" font-weight="bold" font-size="38.0" fill="#222222" transform="matrix(1.00, 0.00, -0.00, -1.00, 525.8, 576.3)">r</text><text xml:space="preserve" font-family="GillSans-SemiBoldItalic,Gill Sans" font-style="italic" font-weight="bold" font-size="38.0" fill="#222222" transform="matrix(1.00, 0.00, -0.00, -1.00, 539.4, 576.3)">s</text><text xml:space="preserve" font-family="GillSans-SemiBoldItalic,Gill Sans" font-style="italic" font-weight="bold" font-size="38.0" fill="#222222" transform="matrix(1.00, 0.00, -0.00, -1.00, 553.4, 576.3)">a</text><text xml:space="preserve" font-family="GillSans-SemiBoldItalic,Gill Sans" font-style="italic" font-weight="bold" font-size="38.0" fill="#222222" transform="matrix(1.00, 0.00, -0.00, -1.00, 572.9, 576.3)">l</text><text xml:space="preserve" font-family="GillSans-SemiBoldItalic,Gill Sans" font-style="italic" font-weight="bold" font-size="38.0" fill="#222222" transform="matrix(1.00, 0.00, -0.00, -1.00, 581.6, 576.3)"> </text><text xml:space="preserve" font-family="GillSans-SemiBoldItalic,Gill Sans" font-style="italic" font-weight="bold" font-size="38.0" fill="#222222" transform="matrix(1.00, 0.00, -0.00, -1.00, 592.2, 576.3)">b</text><text xml:space="preserve" font-family="GillSans-SemiBoldItalic,Gill Sans" font-style="italic" font-weight="bold" font-size="38.0" fill="#222222" transform="matrix(1.00, 0.00, -0.00, -1.00, 611.4, 576.3)">i</text><text xml:space="preserve" font-family="GillSans-SemiBoldItalic,Gill Sans" font-style="italic" font-weight="bold" font-size="38.0" fill="#222222" transform="matrix(1.00, 0.00, -0.00, -1.00, 620.1, 576.3)">o</text><text xml:space="preserve" font-family="GillSans-SemiBoldItalic,Gill Sans" font-style="italic" font-weight="bold" font-size="38.0" fill="#222222" transform="matrix(1.00, 0.00, -0.00, -1.00, 638.9, 576.3)">i</text><text xml:space="preserve" font-family="GillSans-SemiBoldItalic,Gill Sans" font-style="italic" font-weight="bold" font-size="38.0" fill="#222222" transform="matrix(1.00, 0.00, -0.00, -1.00, 647.6, 576.3)">n</text><text xml:space="preserve" font-family="GillSans-SemiBoldItalic,Gill Sans" font-style="italic" font-weight="bold" font-size="38.0" fill="#222222" transform="matrix(1.00, 0.00, -0.00, -1.00, 666.9, 576.3)">f</text><text xml:space="preserve" font-family="GillSans-SemiBoldItalic,Gill Sans" font-style="italic" font-weight="bold" font-size="38.0" fill="#222222" transform="matrix(1.00, 0.00, -0.00, -1.00, 678.5, 576.3)">o</text><text xml:space="preserve" font-family="GillSans-SemiBoldItalic,Gill Sans" font-style="italic" font-weight="bold" font-size="38.0" fill="#222222" transform="matrix(1.00, 0.00, -0.00, -1.00, 697.3, 576.3)">r</text><text xml:space="preserve" font-family="GillSans-SemiBoldItalic,Gill Sans" font-style="italic" font-weight="bold" font-size="38.0" fill="#222222" transform="matrix(1.00, 0.00, -0.00, -1.00, 710.9, 576.3)">m</text><text xml:space="preserve" font-family="GillSans-SemiBoldItalic,Gill Sans" font-style="italic" font-weight="bold" font-size="38.0" fill="#222222" transform="matrix(1.00, 0.00, -0.00, -1.00, 740.6, 576.3)">a</text><text xml:space="preserve" font-family="GillSans-SemiBoldItalic,Gill Sans" font-style="italic" font-weight="bold" font-size="38.0" fill="#222222" transform="matrix(1.00, 0.00, -0.00, -1.00, 760.1, 576.3)">t</text><text xml:space="preserve" font-family="GillSans-SemiBoldItalic,Gill Sans" font-style="italic" font-weight="bold" font-size="38.0" fill="#222222" transform="matrix(1.00, 0.00, -0.00, -1.00, 772.7, 576.3)">i</text><text xml:space="preserve" font-family="GillSans-SemiBoldItalic,Gill Sans" font-style="italic" font-weight="bold" font-size="38.0" fill="#222222" transform="matrix(1.00, 0.00, -0.00, -1.00, 781.4, 576.3)">c</text><text xml:space="preserve" font-family="GillSans-SemiBoldItalic,Gill Sans" font-style="italic" font-weight="bold" font-size="38.0" fill="#222222" transform="matrix(1.00, 0.00, -0.00, -1.00, 797.7, 576.3)">s</text><text xml:space="preserve" font-family="GillSans-SemiBoldItalic,Gill Sans" font-style="italic" font-weight="bold" font-size="38.0" fill="#222222" transform="matrix(1.00, 0.00, -0.00, -1.00, 811.0, 576.3)">”</text><text xml:space="preserve" font-family="GillSans-SemiBoldItalic,Gill Sans" font-style="italic" font-weight="bold" font-size="38.0" fill="#222222" transform="matrix(1.00, 0.00, -0.00, -1.00, 827.9, 576.3)"> </text><text xml:space="preserve" font-family="SauceCodePowerline-Regular,Source Code Pro for Powerline" font-size="20.0" fill="#19B7D1" transform="matrix(1.00, 0.00, -0.00, -1.00, 877.3, 43.9)">d</text><text xml:space="preserve" font-family="SauceCodePowerline-Regular,Source Code Pro for Powerline" font-size="20.0" fill="#19B7D1" transform="matrix(1.00, 0.00, -0.00, -1.00, 889.3, 43.9)">a</text><text xml:space="preserve" font-family="SauceCodePowerline-Regular,Source Code Pro for Powerline" font-size="20.0" fill="#19B7D1" transform="matrix(1.00, 0.00, -0.00, -1.00, 901.2, 43.9)">t</text><text xml:space="preserve" font-family="SauceCodePowerline-Regular,Source Code Pro for Powerline" font-size="20.0" fill="#19B7D1" transform="matrix(1.00, 0.00, -0.00, -1.00, 913.2, 43.9)">-</text><text xml:space="preserve" font-family="SauceCodePowerline-Regular,Source Code Pro for Powerline" font-size="20.0" fill="#19B7D1" transform="matrix(1.00, 0.00, -0.00, -1.00, 925.2, 43.9)">d</text><text xml:space="preserve" font-family="SauceCodePowerline-Regular,Source Code Pro for Powerline" font-size="20.0" fill="#19B7D1" transform="matrix(1.00, 0.00, -0.00, -1.00, 937.2, 43.9)">a</text><text xml:space="preserve" font-family="SauceCodePowerline-Regular,Source Code Pro for Powerline" font-size="20.0" fill="#19B7D1" transform="matrix(1.00, 0.00, -0.00, -1.00, 949.2, 43.9)">t</text><text xml:space="preserve" font-family="SauceCodePowerline-Regular,Source Code Pro for Powerline" font-size="20.0" fill="#19B7D1" transform="matrix(1.00, 0.00, -0.00, -1.00, 961.1, 43.9)">a</text><text xml:space="preserve" font-family="SauceCodePowerline-Regular,Source Code Pro for Powerline" font-size="20.0" fill="#19B7D1" transform="matrix(1.00, 0.00, -0.00, -1.00, 973.1, 43.9)">.</text><text xml:space="preserve" font-family="SauceCodePowerline-Regular,Source Code Pro for Powerline" font-size="20.0" fill="#19B7D1" transform="matrix(1.00, 0.00, -0.00, -1.00, 985.1, 43.9)">c</text><text xml:space="preserve" font-family="SauceCodePowerline-Regular,Source Code Pro for Powerline" font-size="20.0" fill="#19B7D1" transform="matrix(1.00, 0.00, -0.00, -1.00, 997.1, 43.9)">o</text><text xml:space="preserve" font-family="SauceCodePowerline-Regular,Source Code Pro for Powerline" font-size="20.0" fill="#19B7D1" transform="matrix(1.00, 0.00, -0.00, -1.00, 1009.1, 43.9)">m</text><image xlink:href="B3F747E5C8315DAB5431792686B8C0F7.png" width="200.00" height="200.00" transform="matrix(0.24, 0.00, -0.00, -0.24, 826.0, 64.0)"></image><text xml:space="preserve" font-family="SauceCodePowerline-Regular,Source Code Pro for Powerline" font-size="20.0" fill="#19B7D1" transform="matrix(1.00, 0.00, -0.00, -1.00, 876.9, 17.2)">b</text><text xml:space="preserve" font-family="SauceCodePowerline-Regular,Source Code Pro for Powerline" font-size="20.0" fill="#19B7D1" transform="matrix(1.00, 0.00, -0.00, -1.00, 888.9, 17.2)">i</text><text xml:space="preserve" font-family="SauceCodePowerline-Regular,Source Code Pro for Powerline" font-size="20.0" fill="#19B7D1" transform="matrix(1.00, 0.00, -0.00, -1.00, 900.9, 17.2)">o</text><text xml:space="preserve" font-family="SauceCodePowerline-Regular,Source Code Pro for Powerline" font-size="20.0" fill="#19B7D1" transform="matrix(1.00, 0.00, -0.00, -1.00, 912.9, 17.2)">j</text><text xml:space="preserve" font-family="SauceCodePowerline-Regular,Source Code Pro for Powerline" font-size="20.0" fill="#19B7D1" transform="matrix(1.00, 0.00, -0.00, -1.00, 924.9, 17.2)">s</text><text xml:space="preserve" font-family="SauceCodePowerline-Regular,Source Code Pro for Powerline" font-size="20.0" fill="#19B7D1" transform="matrix(1.00, 0.00, -0.00, -1.00, 936.8, 17.2)">.</text><text xml:space="preserve" font-family="SauceCodePowerline-Regular,Source Code Pro for Powerline" font-size="20.0" fill="#19B7D1" transform="matrix(1.00, 0.00, -0.00, -1.00, 948.8, 17.2)">n</text><text xml:space="preserve" font-family="SauceCodePowerline-Regular,Source Code Pro for Powerline" font-size="20.0" fill="#19B7D1" transform="matrix(1.00, 0.00, -0.00, -1.00, 960.8, 17.2)">e</text><text xml:space="preserve" font-family="SauceCodePowerline-Regular,Source Code Pro for Powerline" font-size="20.0" fill="#19B7D1" transform="matrix(1.00, 0.00, -0.00, -1.00, 972.8, 17.2)">t</text><text xml:space="preserve" font-family="GillSans-Light,Gill Sans" font-size="36.0" fill="#525252" transform="matrix(1.00, 0.00, -0.00, -1.00, 787.9, 76.1)">C</text><text xml:space="preserve" font-family="GillSans-Light,Gill Sans" font-size="36.0" fill="#525252" transform="matrix(1.00, 0.00, -0.00, -1.00, 812.2, 76.1)">o</text><text xml:space="preserve" font-family="GillSans-Light,Gill Sans" font-size="36.0" fill="#525252" transform="matrix(1.00, 0.00, -0.00, -1.00, 831.7, 76.1)">l</text><text xml:space="preserve" font-family="GillSans-Light,Gill Sans" font-size="36.0" fill="#525252" transform="matrix(1.00, 0.00, -0.00, -1.00, 838.5, 76.1)">l</text><text xml:space="preserve" font-family="GillSans-Light,Gill Sans" font-size="36.0" fill="#525252" transform="matrix(1.00, 0.00, -0.00, -1.00, 845.3, 76.1)">a</text><text xml:space="preserve" font-family="GillSans-Light,Gill Sans" font-size="36.0" fill="#525252" transform="matrix(1.00, 0.00, -0.00, -1.00, 860.6, 76.1)">b</text><text xml:space="preserve" font-family="GillSans-Light,Gill Sans" font-size="36.0" fill="#525252" transform="matrix(1.00, 0.00, -0.00, -1.00, 879.0, 76.1)">o</text><text xml:space="preserve" font-family="GillSans-Light,Gill Sans" font-size="36.0" fill="#525252" transform="matrix(1.00, 0.00, -0.00, -1.00, 898.5, 76.1)">r</text><text xml:space="preserve" font-family="GillSans-Light,Gill Sans" font-size="36.0" fill="#525252" transform="matrix(1.00, 0.00, -0.00, -1.00, 911.4, 76.1)">a</text><text xml:space="preserve" font-family="GillSans-Light,Gill Sans" font-size="36.0" fill="#525252" transform="matrix(1.00, 0.00, -0.00, -1.00, 926.7, 76.1)">t</text><text xml:space="preserve" font-family="GillSans-Light,Gill Sans" font-size="36.0" fill="#525252" transform="matrix(1.00, 0.00, -0.00, -1.00, 937.6, 76.1)">i</text><text xml:space="preserve" font-family="GillSans-Light,Gill Sans" font-size="36.0" fill="#525252" transform="matrix(1.00, 0.00, -0.00, -1.00, 944.3, 76.1)">o</text><text xml:space="preserve" font-family="GillSans-Light,Gill Sans" font-size="36.0" fill="#525252" transform="matrix(1.00, 0.00, -0.00, -1.00, 963.9, 76.1)">n</text><text xml:space="preserve" font-family="GillSans-Light,Gill Sans" font-size="36.0" fill="#525252" transform="matrix(1.00, 0.00, -0.00, -1.00, 981.5, 76.1)">s</text><image xlink:href="A79CEF914F918F484D416C907CB80578.png" width="1498.00" height="1889.00" transform="matrix(0.08, 0.00, -0.00, -0.08, 886.0, 757.0)"></image><text xml:space="preserve" font-family="SauceCodePowerline-Regular,Source Code Pro for Powerline" font-size="36.0" fill="#19B7D1" transform="matrix(1.00, 0.00, -0.00, -1.00, 295.6, 145.7)">h</text><text xml:space="preserve" font-family="SauceCodePowerline-Regular,Source Code Pro for Powerline" font-size="36.0" fill="#19B7D1" transform="matrix(1.00, 0.00, -0.00, -1.00, 317.1, 145.7)">t</text><text xml:space="preserve" font-family="SauceCodePowerline-Regular,Source Code Pro for Powerline" font-size="36.0" fill="#19B7D1" transform="matrix(1.00, 0.00, -0.00, -1.00, 338.7, 145.7)">t</text><text xml:space="preserve" font-family="SauceCodePowerline-Regular,Source Code Pro for Powerline" font-size="36.0" fill="#19B7D1" transform="matrix(1.00, 0.00, -0.00, -1.00, 360.3, 145.7)">p</text><text xml:space="preserve" font-family="SauceCodePowerline-Regular,Source Code Pro for Powerline" font-size="36.0" fill="#19B7D1" transform="matrix(1.00, 0.00, -0.00, -1.00, 381.8, 145.7)">:</text><text xml:space="preserve" font-family="SauceCodePowerline-Regular,Source Code Pro for Powerline" font-size="36.0" fill="#19B7D1" transform="matrix(1.00, 0.00, -0.00, -1.00, 403.4, 145.7)">/</text><text xml:space="preserve" font-family="SauceCodePowerline-Regular,Source Code Pro for Powerline" font-size="36.0" fill="#19B7D1" transform="matrix(1.00, 0.00, -0.00, -1.00, 425.0, 145.7)">/</text><text xml:space="preserve" font-family="SauceCodePowerline-Regular,Source Code Pro for Powerline" font-size="36.0" fill="#19B7D1" transform="matrix(1.00, 0.00, -0.00, -1.00, 446.5, 145.7)">t</text><text xml:space="preserve" font-family="SauceCodePowerline-Regular,Source Code Pro for Powerline" font-size="36.0" fill="#19B7D1" transform="matrix(1.00, 0.00, -0.00, -1.00, 468.1, 145.7)">r</text><text xml:space="preserve" font-family="SauceCodePowerline-Regular,Source Code Pro for Powerline" font-size="36.0" fill="#19B7D1" transform="matrix(1.00, 0.00, -0.00, -1.00, 489.7, 145.7)">y</text><text xml:space="preserve" font-family="SauceCodePowerline-Regular,Source Code Pro for Powerline" font-size="36.0" fill="#19B7D1" transform="matrix(1.00, 0.00, -0.00, -1.00, 511.2, 145.7)">.</text><text xml:space="preserve" font-family="SauceCodePowerline-Regular,Source Code Pro for Powerline" font-size="36.0" fill="#19B7D1" transform="matrix(1.00, 0.00, -0.00, -1.00, 532.8, 145.7)">b</text><text xml:space="preserve" font-family="SauceCodePowerline-Regular,Source Code Pro for Powerline" font-size="36.0" fill="#19B7D1" transform="matrix(1.00, 0.00, -0.00, -1.00, 554.3, 145.7)">i</text><text xml:space="preserve" font-family="SauceCodePowerline-Regular,Source Code Pro for Powerline" font-size="36.0" fill="#19B7D1" transform="matrix(1.00, 0.00, -0.00, -1.00, 575.9, 145.7)">o</text><text xml:space="preserve" font-family="SauceCodePowerline-Regular,Source Code Pro for Powerline" font-size="36.0" fill="#19B7D1" transform="matrix(1.00, 0.00, -0.00, -1.00, 597.5, 145.7)">n</text><text xml:space="preserve" font-family="SauceCodePowerline-Regular,Source Code Pro for Powerline" font-size="36.0" fill="#19B7D1" transform="matrix(1.00, 0.00, -0.00, -1.00, 619.0, 145.7)">o</text><text xml:space="preserve" font-family="SauceCodePowerline-Regular,Source Code Pro for Powerline" font-size="36.0" fill="#19B7D1" transform="matrix(1.00, 0.00, -0.00, -1.00, 640.6, 145.7)">d</text><text xml:space="preserve" font-family="SauceCodePowerline-Regular,Source Code Pro for Powerline" font-size="36.0" fill="#19B7D1" transform="matrix(1.00, 0.00, -0.00, -1.00, 662.2, 145.7)">e</text><text xml:space="preserve" font-family="SauceCodePowerline-Regular,Source Code Pro for Powerline" font-size="36.0" fill="#19B7D1" transform="matrix(1.00, 0.00, -0.00, -1.00, 683.7, 145.7)">.</text><text xml:space="preserve" font-family="SauceCodePowerline-Regular,Source Code Pro for Powerline" font-size="36.0" fill="#19B7D1" transform="matrix(1.00, 0.00, -0.00, -1.00, 705.3, 145.7)">i</text><text xml:space="preserve" font-family="SauceCodePowerline-Regular,Source Code Pro for Powerline" font-size="36.0" fill="#19B7D1" transform="matrix(1.00, 0.00, -0.00, -1.00, 726.9, 145.7)">o</text><image xlink:href="B631900B0EA9F22519424EDC93BD0E84.png" width="1036.00" height="83.00" transform="matrix(1.00, 0.00, -0.00, -1.01, -6.0, 285.2)" opacity="0.50"></image><image xlink:href="014F4016722ED0D8526CC70F6FC5B0DF.png" width="2666.00" height="186.00" transform="matrix(0.38, 0.00, -0.00, -0.38, 0.0, 281.0)"></image><path d="M 0.0 0.2 L 1024.0 0.2 L 1024.0 71.2 L 0.0 71.2 Z M 0.0 0.2 " fill="none" stroke="#000000" stroke-width="2.00" transform="matrix(1.00, 0.00, 0.00, -1.00, 0.0, 281.2)"></path></g></svg>