<?xml version="1.0" encoding="UTF-8" standalone="no"?><svg xmlns="http://www.w3.org/2000/svg" xmlns:xlink="http://www.w3.org/1999/xlink" clip-rule="evenodd" stroke-miterlimit="10" viewBox="0 0 1024 768"><desc>SVG generated by Keynote</desc><defs></defs><g transform="matrix(1.00, 0.00, -0.00, -1.00, 0.0, 768.0)"><g><clipPath id="clip0x600000ebf1a0"><path d="M 0.0 768.0 L 1024.0 768.0 L 1024.0 0.0 L 0.0 0.0 Z M 0.0 768.0 "></path></clipPath><g clip-path="url(#clip0x600000ebf1a0)"><image xlink:href="../../16B8362E-6469-47BC-976D-7D236EA9E3CB/assets/574DCE55A4CF432400CBDDDE1DFDFC9B.jpeg" width="2048.00" height="1536.00" transform="matrix(0.50, 0.00, -0.00, -0.50, 0.0, 768.0)"></image></g></g><g opacity="0.30"><g><clipPath id="clip0x600000eba940"><path d="M 0.0 384.0 L 1024.0 384.0 L 1024.0 567.0 L 0.0 567.0 Z M 0.0 384.0 "></path></clipPath><g clip-path="url(#clip0x600000eba940)"><image xlink:href="97A39427A7589E382D29217E790CAFE9.png" width="1140.00" height="200.00" transform="matrix(0.90, 0.00, -0.00, -0.90, 0.0, 565.0)"></image></g></g></g><text xml:space="preserve" font-family="GillSans-Light,Gill Sans" font-size="36.0" fill="#525252" transform="matrix(1.00, 0.00, -0.00, -1.00, 173.2, 651.0)">A</text><text xml:space="preserve" font-family="GillSans-Light,Gill Sans" font-size="36.0" fill="#525252" transform="matrix(1.00, 0.00, -0.00, -1.00, 197.2, 651.0)">l</text><text xml:space="preserve" font-family="GillSans-Light,Gill Sans" font-size="36.0" fill="#525252" transform="matrix(1.00, 0.00, -0.00, -1.00, 204.0, 651.0)">l</text><text xml:space="preserve" font-family="GillSans-Light,Gill Sans" font-size="36.0" fill="#525252" transform="matrix(1.00, 0.00, -0.00, -1.00, 210.8, 651.0)"> </text><text xml:space="preserve" font-family="GillSans-Light,Gill Sans" font-size="36.0" fill="#525252" transform="matrix(1.00, 0.00, -0.00, -1.00, 220.8, 651.0)">p</text><text xml:space="preserve" font-family="GillSans-Light,Gill Sans" font-size="36.0" fill="#525252" transform="matrix(1.00, 0.00, -0.00, -1.00, 239.1, 651.0)">r</text><text xml:space="preserve" font-family="GillSans-Light,Gill Sans" font-size="36.0" fill="#525252" transform="matrix(1.00, 0.00, -0.00, -1.00, 251.1, 651.0)">o</text><text xml:space="preserve" font-family="GillSans-Light,Gill Sans" font-size="36.0" fill="#525252" transform="matrix(1.00, 0.00, -0.00, -1.00, 270.6, 651.0)">g</text><text xml:space="preserve" font-family="GillSans-Light,Gill Sans" font-size="36.0" fill="#525252" transform="matrix(1.00, 0.00, -0.00, -1.00, 286.0, 651.0)">r</text><text xml:space="preserve" font-family="GillSans-Light,Gill Sans" font-size="36.0" fill="#525252" transform="matrix(1.00, 0.00, -0.00, -1.00, 298.8, 651.0)">a</text><text xml:space="preserve" font-family="GillSans-Light,Gill Sans" font-size="36.0" fill="#525252" transform="matrix(1.00, 0.00, -0.00, -1.00, 314.2, 651.0)">m</text><text xml:space="preserve" font-family="GillSans-Light,Gill Sans" font-size="36.0" fill="#525252" transform="matrix(1.00, 0.00, -0.00, -1.00, 342.0, 651.0)">m</text><text xml:space="preserve" font-family="GillSans-Light,Gill Sans" font-size="36.0" fill="#525252" transform="matrix(1.00, 0.00, -0.00, -1.00, 369.7, 651.0)">i</text><text xml:space="preserve" font-family="GillSans-Light,Gill Sans" font-size="36.0" fill="#525252" transform="matrix(1.00, 0.00, -0.00, -1.00, 376.5, 651.0)">n</text><text xml:space="preserve" font-family="GillSans-Light,Gill Sans" font-size="36.0" fill="#525252" transform="matrix(1.00, 0.00, -0.00, -1.00, 394.1, 651.0)">g</text><text xml:space="preserve" font-family="GillSans-Light,Gill Sans" font-size="36.0" fill="#525252" transform="matrix(1.00, 0.00, -0.00, -1.00, 409.5, 651.0)"> </text><text xml:space="preserve" font-family="GillSans-Light,Gill Sans" font-size="36.0" fill="#525252" transform="matrix(1.00, 0.00, -0.00, -1.00, 419.5, 651.0)">s</text><text xml:space="preserve" font-family="GillSans-Light,Gill Sans" font-size="36.0" fill="#525252" transform="matrix(1.00, 0.00, -0.00, -1.00, 432.2, 651.0)">k</text><text xml:space="preserve" font-family="GillSans-Light,Gill Sans" font-size="36.0" fill="#525252" transform="matrix(1.00, 0.00, -0.00, -1.00, 447.6, 651.0)">i</text><text xml:space="preserve" font-family="GillSans-Light,Gill Sans" font-size="36.0" fill="#525252" transform="matrix(1.00, 0.00, -0.00, -1.00, 454.4, 651.0)">l</text><text xml:space="preserve" font-family="GillSans-Light,Gill Sans" font-size="36.0" fill="#525252" transform="matrix(1.00, 0.00, -0.00, -1.00, 461.1, 651.0)">l</text><text xml:space="preserve" font-family="GillSans-Light,Gill Sans" font-size="36.0" fill="#525252" transform="matrix(1.00, 0.00, -0.00, -1.00, 467.9, 651.0)">s</text><text xml:space="preserve" font-family="GillSans-Light,Gill Sans" font-size="36.0" fill="#525252" transform="matrix(1.00, 0.00, -0.00, -1.00, 480.6, 651.0)"> </text><text xml:space="preserve" font-family="GillSans-Light,Gill Sans" font-size="36.0" fill="#525252" transform="matrix(1.00, 0.00, -0.00, -1.00, 490.6, 651.0)">w</text><text xml:space="preserve" font-family="GillSans-Light,Gill Sans" font-size="36.0" fill="#525252" transform="matrix(1.00, 0.00, -0.00, -1.00, 515.6, 651.0)">e</text><text xml:space="preserve" font-family="GillSans-Light,Gill Sans" font-size="36.0" fill="#525252" transform="matrix(1.00, 0.00, -0.00, -1.00, 532.8, 651.0)">l</text><text xml:space="preserve" font-family="GillSans-Light,Gill Sans" font-size="36.0" fill="#525252" transform="matrix(1.00, 0.00, -0.00, -1.00, 539.6, 651.0)">c</text><text xml:space="preserve" font-family="GillSans-Light,Gill Sans" font-size="36.0" fill="#525252" transform="matrix(1.00, 0.00, -0.00, -1.00, 554.6, 651.0)">o</text><text xml:space="preserve" font-family="GillSans-Light,Gill Sans" font-size="36.0" fill="#525252" transform="matrix(1.00, 0.00, -0.00, -1.00, 574.1, 651.0)">m</text><text xml:space="preserve" font-family="GillSans-Light,Gill Sans" font-size="36.0" fill="#525252" transform="matrix(1.00, 0.00, -0.00, -1.00, 601.9, 651.0)">e</text><text xml:space="preserve" font-family="GillSans-Light,Gill Sans" font-size="36.0" fill="#525252" transform="matrix(1.00, 0.00, -0.00, -1.00, 619.1, 651.0)"> </text><text xml:space="preserve" font-family="GillSans-Light,Gill Sans" font-size="36.0" fill="#525252" transform="matrix(1.00, 0.00, -0.00, -1.00, 629.1, 651.0)">(</text><text xml:space="preserve" font-family="GillSans-SemiBold,Gill Sans" font-weight="bold" font-size="36.0" fill="#525252" transform="matrix(1.00, 0.00, -0.00, -1.00, 641.2, 651.0)">e</text><text xml:space="preserve" font-family="GillSans-SemiBold,Gill Sans" font-weight="bold" font-size="36.0" fill="#525252" transform="matrix(1.00, 0.00, -0.00, -1.00, 659.7, 651.0)">v</text><text xml:space="preserve" font-family="GillSans-SemiBold,Gill Sans" font-weight="bold" font-size="36.0" fill="#525252" transform="matrix(1.00, 0.00, -0.00, -1.00, 676.9, 651.0)">e</text><text xml:space="preserve" font-family="GillSans-SemiBold,Gill Sans" font-weight="bold" font-size="36.0" fill="#525252" transform="matrix(1.00, 0.00, -0.00, -1.00, 695.5, 651.0)">n</text><text xml:space="preserve" font-family="GillSans-SemiBold,Gill Sans" font-weight="bold" font-size="36.0" fill="#525252" transform="matrix(1.00, 0.00, -0.00, -1.00, 715.0, 651.0)"> </text><text xml:space="preserve" font-family="GillSans-SemiBold,Gill Sans" font-weight="bold" font-size="36.0" fill="#525252" transform="matrix(1.00, 0.00, -0.00, -1.00, 725.0, 651.0)">n</text><text xml:space="preserve" font-family="GillSans-SemiBold,Gill Sans" font-weight="bold" font-size="36.0" fill="#525252" transform="matrix(1.00, 0.00, -0.00, -1.00, 744.4, 651.0)">o</text><text xml:space="preserve" font-family="GillSans-SemiBold,Gill Sans" font-weight="bold" font-size="36.0" fill="#525252" transform="matrix(1.00, 0.00, -0.00, -1.00, 765.1, 651.0)">n</text><text xml:space="preserve" font-family="GillSans-SemiBold,Gill Sans" font-weight="bold" font-size="36.0" fill="#525252" transform="matrix(1.00, 0.00, -0.00, -1.00, 784.6, 651.0)">e</text><text xml:space="preserve" font-family="GillSans-Light,Gill Sans" font-size="36.0" fill="#525252" transform="matrix(1.00, 0.00, -0.00, -1.00, 803.1, 651.0)">)</text><text xml:space="preserve" font-family="GillSans-Light,Gill Sans" font-size="36.0" fill="#525252" transform="matrix(1.00, 0.00, -0.00, -1.00, 815.1, 651.0)">.</text><text xml:space="preserve" font-family="GillSans-Light,Gill Sans" font-size="55.0" fill="#525252" transform="matrix(1.00, 0.00, -0.00, -1.00, 146.6, 705.5)">I</text><text xml:space="preserve" font-family="GillSans-Light,Gill Sans" font-size="55.0" fill="#525252" transform="matrix(1.00, 0.00, -0.00, -1.00, 158.0, 705.5)">m</text><text xml:space="preserve" font-family="GillSans-Light,Gill Sans" font-size="55.0" fill="#525252" transform="matrix(1.00, 0.00, -0.00, -1.00, 200.4, 705.5)">p</text><text xml:space="preserve" font-family="GillSans-Light,Gill Sans" font-size="55.0" fill="#525252" transform="matrix(1.00, 0.00, -0.00, -1.00, 228.4, 705.5)">r</text><text xml:space="preserve" font-family="GillSans-Light,Gill Sans" font-size="55.0" fill="#525252" transform="matrix(1.00, 0.00, -0.00, -1.00, 246.7, 705.5)">o</text><text xml:space="preserve" font-family="GillSans-Light,Gill Sans" font-size="55.0" fill="#525252" transform="matrix(1.00, 0.00, -0.00, -1.00, 275.4, 705.5)">v</text><text xml:space="preserve" font-family="GillSans-Light,Gill Sans" font-size="55.0" fill="#525252" transform="matrix(1.00, 0.00, -0.00, -1.00, 298.1, 705.5)">e</text><text xml:space="preserve" font-family="GillSans-Light,Gill Sans" font-size="55.0" fill="#525252" transform="matrix(1.00, 0.00, -0.00, -1.00, 324.4, 705.5)"> </text><text xml:space="preserve" font-family="GillSans-Light,Gill Sans" font-size="55.0" fill="#525252" transform="matrix(1.00, 0.00, -0.00, -1.00, 339.7, 705.5)">u</text><text xml:space="preserve" font-family="GillSans-Light,Gill Sans" font-size="55.0" fill="#525252" transform="matrix(1.00, 0.00, -0.00, -1.00, 366.7, 705.5)">s</text><text xml:space="preserve" font-family="GillSans-Light,Gill Sans" font-size="55.0" fill="#525252" transform="matrix(1.00, 0.00, -0.00, -1.00, 386.1, 705.5)">a</text><text xml:space="preserve" font-family="GillSans-Light,Gill Sans" font-size="55.0" fill="#525252" transform="matrix(1.00, 0.00, -0.00, -1.00, 409.6, 705.5)">b</text><text xml:space="preserve" font-family="GillSans-Light,Gill Sans" font-size="55.0" fill="#525252" transform="matrix(1.00, 0.00, -0.00, -1.00, 437.6, 705.5)">i</text><text xml:space="preserve" font-family="GillSans-Light,Gill Sans" font-size="55.0" fill="#525252" transform="matrix(1.00, 0.00, -0.00, -1.00, 448.0, 705.5)">l</text><text xml:space="preserve" font-family="GillSans-Light,Gill Sans" font-size="55.0" fill="#525252" transform="matrix(1.00, 0.00, -0.00, -1.00, 458.3, 705.5)">i</text><text xml:space="preserve" font-family="GillSans-Light,Gill Sans" font-size="55.0" fill="#525252" transform="matrix(1.00, 0.00, -0.00, -1.00, 468.6, 705.5)">t</text><text xml:space="preserve" font-family="GillSans-Light,Gill Sans" font-size="55.0" fill="#525252" transform="matrix(1.00, 0.00, -0.00, -1.00, 485.2, 705.5)">y</text><text xml:space="preserve" font-family="GillSans-Light,Gill Sans" font-size="55.0" fill="#525252" transform="matrix(1.00, 0.00, -0.00, -1.00, 508.2, 705.5)"> </text><text xml:space="preserve" font-family="GillSans-Light,Gill Sans" font-size="55.0" fill="#525252" transform="matrix(1.00, 0.00, -0.00, -1.00, 523.4, 705.5)">a</text><text xml:space="preserve" font-family="GillSans-Light,Gill Sans" font-size="55.0" fill="#525252" transform="matrix(1.00, 0.00, -0.00, -1.00, 546.9, 705.5)">n</text><text xml:space="preserve" font-family="GillSans-Light,Gill Sans" font-size="55.0" fill="#525252" transform="matrix(1.00, 0.00, -0.00, -1.00, 573.9, 705.5)">d</text><text xml:space="preserve" font-family="GillSans-Light,Gill Sans" font-size="55.0" fill="#525252" transform="matrix(1.00, 0.00, -0.00, -1.00, 601.9, 705.5)"> </text><text xml:space="preserve" font-family="GillSans-Light,Gill Sans" font-size="55.0" fill="#525252" transform="matrix(1.00, 0.00, -0.00, -1.00, 617.2, 705.5)">r</text><text xml:space="preserve" font-family="GillSans-Light,Gill Sans" font-size="55.0" fill="#525252" transform="matrix(1.00, 0.00, -0.00, -1.00, 635.6, 705.5)">o</text><text xml:space="preserve" font-family="GillSans-Light,Gill Sans" font-size="55.0" fill="#525252" transform="matrix(1.00, 0.00, -0.00, -1.00, 665.4, 705.5)">b</text><text xml:space="preserve" font-family="GillSans-Light,Gill Sans" font-size="55.0" fill="#525252" transform="matrix(1.00, 0.00, -0.00, -1.00, 692.9, 705.5)">u</text><text xml:space="preserve" font-family="GillSans-Light,Gill Sans" font-size="55.0" fill="#525252" transform="matrix(1.00, 0.00, -0.00, -1.00, 719.8, 705.5)">s</text><text xml:space="preserve" font-family="GillSans-Light,Gill Sans" font-size="55.0" fill="#525252" transform="matrix(1.00, 0.00, -0.00, -1.00, 739.3, 705.5)">t</text><text xml:space="preserve" font-family="GillSans-Light,Gill Sans" font-size="55.0" fill="#525252" transform="matrix(1.00, 0.00, -0.00, -1.00, 755.9, 705.5)">n</text><text xml:space="preserve" font-family="GillSans-Light,Gill Sans" font-size="55.0" fill="#525252" transform="matrix(1.00, 0.00, -0.00, -1.00, 782.9, 705.5)">e</text><text xml:space="preserve" font-family="GillSans-Light,Gill Sans" font-size="55.0" fill="#525252" transform="matrix(1.00, 0.00, -0.00, -1.00, 809.2, 705.5)">s</text><text xml:space="preserve" font-family="GillSans-Light,Gill Sans" font-size="55.0" fill="#525252" transform="matrix(1.00, 0.00, -0.00, -1.00, 828.7, 705.5)">s</text><text xml:space="preserve" font-family="GillSans-Light,Gill Sans" font-size="51.0" fill="#525252" transform="matrix(1.00, 0.00, -0.00, -1.00, 31.0, 342.4)">E</text><text xml:space="preserve" font-family="GillSans-Light,Gill Sans" font-size="51.0" fill="#525252" transform="matrix(1.00, 0.00, -0.00, -1.00, 56.1, 342.4)">x</text><text xml:space="preserve" font-family="GillSans-Light,Gill Sans" font-size="51.0" fill="#525252" transform="matrix(1.00, 0.00, -0.00, -1.00, 80.5, 342.4)">t</text><text xml:space="preserve" font-family="GillSans-Light,Gill Sans" font-size="51.0" fill="#525252" transform="matrix(1.00, 0.00, -0.00, -1.00, 95.9, 342.4)">e</text><text xml:space="preserve" font-family="GillSans-Light,Gill Sans" font-size="51.0" fill="#525252" transform="matrix(1.00, 0.00, -0.00, -1.00, 120.3, 342.4)">n</text><text xml:space="preserve" font-family="GillSans-Light,Gill Sans" font-size="51.0" fill="#525252" transform="matrix(1.00, 0.00, -0.00, -1.00, 145.3, 342.4)">d</text><text xml:space="preserve" font-family="GillSans-Light,Gill Sans" font-size="51.0" fill="#525252" transform="matrix(1.00, 0.00, -0.00, -1.00, 171.3, 342.4)">i</text><text xml:space="preserve" font-family="GillSans-Light,Gill Sans" font-size="51.0" fill="#525252" transform="matrix(1.00, 0.00, -0.00, -1.00, 180.9, 342.4)">n</text><text xml:space="preserve" font-family="GillSans-Light,Gill Sans" font-size="51.0" fill="#525252" transform="matrix(1.00, 0.00, -0.00, -1.00, 205.9, 342.4)">g</text><text xml:space="preserve" font-family="GillSans-Light,Gill Sans" font-size="51.0" fill="#525252" transform="matrix(1.00, 0.00, -0.00, -1.00, 227.6, 342.4)"> </text><text xml:space="preserve" font-family="GillSans-Light,Gill Sans" font-size="51.0" fill="#525252" transform="matrix(1.00, 0.00, -0.00, -1.00, 241.8, 342.4)">L</text><text xml:space="preserve" font-family="GillSans-Light,Gill Sans" font-size="51.0" fill="#525252" transform="matrix(1.00, 0.00, -0.00, -1.00, 265.8, 342.4)">e</text><text xml:space="preserve" font-family="GillSans-Light,Gill Sans" font-size="51.0" fill="#525252" transform="matrix(1.00, 0.00, -0.00, -1.00, 290.2, 342.4)">a</text><text xml:space="preserve" font-family="GillSans-Light,Gill Sans" font-size="51.0" fill="#525252" transform="matrix(1.00, 0.00, -0.00, -1.00, 311.9, 342.4)">f</text><text xml:space="preserve" font-family="GillSans-Light,Gill Sans" font-size="51.0" fill="#525252" transform="matrix(1.00, 0.00, -0.00, -1.00, 324.2, 342.4)">.</text><text xml:space="preserve" font-family="GillSans-Light,Gill Sans" font-size="51.0" fill="#525252" transform="matrix(1.00, 0.00, -0.00, -1.00, 333.2, 342.4)">b</text><text xml:space="preserve" font-family="GillSans-Light,Gill Sans" font-size="51.0" fill="#525252" transform="matrix(1.00, 0.00, -0.00, -1.00, 359.2, 342.4)">i</text><text xml:space="preserve" font-family="GillSans-Light,Gill Sans" font-size="51.0" fill="#525252" transform="matrix(1.00, 0.00, -0.00, -1.00, 368.8, 342.4)">o</text><text xml:space="preserve" font-family="GillSans-Light,Gill Sans" font-size="51.0" fill="#525252" transform="matrix(1.00, 0.00, -0.00, -1.00, 396.4, 342.4)"> </text><text xml:space="preserve" font-family="GillSans-Light,Gill Sans" font-size="51.0" fill="#525252" transform="matrix(1.00, 0.00, -0.00, -1.00, 410.6, 342.4)">w</text><text xml:space="preserve" font-family="GillSans-Light,Gill Sans" font-size="51.0" fill="#525252" transform="matrix(1.00, 0.00, -0.00, -1.00, 446.7, 342.4)">i</text><text xml:space="preserve" font-family="GillSans-Light,Gill Sans" font-size="51.0" fill="#525252" transform="matrix(1.00, 0.00, -0.00, -1.00, 456.3, 342.4)">t</text><text xml:space="preserve" font-family="GillSans-Light,Gill Sans" font-size="51.0" fill="#525252" transform="matrix(1.00, 0.00, -0.00, -1.00, 471.7, 342.4)">h</text><text xml:space="preserve" font-family="GillSans-Light,Gill Sans" font-size="51.0" fill="#525252" transform="matrix(1.00, 0.00, -0.00, -1.00, 496.7, 342.4)"> </text><text xml:space="preserve" font-family="GillSans-Light,Gill Sans" font-size="51.0" fill="#525252" transform="matrix(1.00, 0.00, -0.00, -1.00, 510.8, 342.4)">D</text><text xml:space="preserve" font-family="GillSans-Light,Gill Sans" font-size="51.0" fill="#525252" transform="matrix(1.00, 0.00, -0.00, -1.00, 548.6, 342.4)">o</text><text xml:space="preserve" font-family="GillSans-Light,Gill Sans" font-size="51.0" fill="#525252" transform="matrix(1.00, 0.00, -0.00, -1.00, 576.2, 342.4)">c</text><text xml:space="preserve" font-family="GillSans-Light,Gill Sans" font-size="51.0" fill="#525252" transform="matrix(1.00, 0.00, -0.00, -1.00, 597.5, 342.4)">k</text><text xml:space="preserve" font-family="GillSans-Light,Gill Sans" font-size="51.0" fill="#525252" transform="matrix(1.00, 0.00, -0.00, -1.00, 618.7, 342.4)">e</text><text xml:space="preserve" font-family="GillSans-Light,Gill Sans" font-size="51.0" fill="#525252" transform="matrix(1.00, 0.00, -0.00, -1.00, 643.2, 342.4)">r</text><text xml:space="preserve" font-family="GillSans-Light,Gill Sans" font-size="51.0" fill="#525252" transform="matrix(1.00, 0.00, -0.00, -1.00, 655.6, 342.4)">,</text><text xml:space="preserve" font-family="GillSans-Light,Gill Sans" font-size="51.0" fill="#525252" transform="matrix(1.00, 0.00, -0.00, -1.00, 660.5, 342.4)"> </text><text xml:space="preserve" font-family="GillSans-Light,Gill Sans" font-size="50.0" fill="#525252" transform="matrix(1.00, 0.00, -0.00, -1.00, 674.7, 342.4)">D</text><text xml:space="preserve" font-family="GillSans-Light,Gill Sans" font-size="50.0" fill="#525252" transform="matrix(1.00, 0.00, -0.00, -1.00, 711.7, 342.4)">a</text><text xml:space="preserve" font-family="GillSans-Light,Gill Sans" font-size="50.0" fill="#525252" transform="matrix(1.00, 0.00, -0.00, -1.00, 733.1, 342.4)">t</text><text xml:space="preserve" font-family="GillSans-Light,Gill Sans" font-size="51.0" fill="#525252" transform="matrix(1.00, 0.00, -0.00, -1.00, 748.2, 342.4)"> </text><text xml:space="preserve" font-family="GillSans-Light,Gill Sans" font-size="51.0" fill="#525252" transform="matrix(1.00, 0.00, -0.00, -1.00, 762.3, 342.4)">a</text><text xml:space="preserve" font-family="GillSans-Light,Gill Sans" font-size="51.0" fill="#525252" transform="matrix(1.00, 0.00, -0.00, -1.00, 784.1, 342.4)">n</text><text xml:space="preserve" font-family="GillSans-Light,Gill Sans" font-size="51.0" fill="#525252" transform="matrix(1.00, 0.00, -0.00, -1.00, 809.1, 342.4)">d</text><text xml:space="preserve" font-family="GillSans-Light,Gill Sans" font-size="51.0" fill="#525252" transform="matrix(1.00, 0.00, -0.00, -1.00, 835.1, 342.4)"> </text><text xml:space="preserve" font-family="GillSans-Light,Gill Sans" font-size="51.0" fill="#525252" transform="matrix(1.00, 0.00, -0.00, -1.00, 849.2, 342.4)">B</text><text xml:space="preserve" font-family="GillSans-Light,Gill Sans" font-size="51.0" fill="#525252" transform="matrix(1.00, 0.00, -0.00, -1.00, 876.3, 342.4)">i</text><text xml:space="preserve" font-family="GillSans-Light,Gill Sans" font-size="51.0" fill="#525252" transform="matrix(1.00, 0.00, -0.00, -1.00, 885.9, 342.4)">o</text><text xml:space="preserve" font-family="GillSans-Light,Gill Sans" font-size="51.0" fill="#525252" transform="matrix(1.00, 0.00, -0.00, -1.00, 913.5, 342.4)">n</text><text xml:space="preserve" font-family="GillSans-Light,Gill Sans" font-size="51.0" fill="#525252" transform="matrix(1.00, 0.00, -0.00, -1.00, 938.5, 342.4)">o</text><text xml:space="preserve" font-family="GillSans-Light,Gill Sans" font-size="51.0" fill="#525252" transform="matrix(1.00, 0.00, -0.00, -1.00, 966.2, 342.4)">d</text><text xml:space="preserve" font-family="GillSans-Light,Gill Sans" font-size="51.0" fill="#525252" transform="matrix(1.00, 0.00, -0.00, -1.00, 992.2, 342.4)">e</text><text xml:space="preserve" font-family="SauceCodePowerline-Regular,Source Code Pro for Powerline" font-size="36.0" fill="#19B7D1" transform="matrix(1.00, 0.00, -0.00, -1.00, 274.3, 78.5)">h</text><text xml:space="preserve" font-family="SauceCodePowerline-Regular,Source Code Pro for Powerline" font-size="36.0" fill="#19B7D1" transform="matrix(1.00, 0.00, -0.00, -1.00, 295.9, 78.5)">t</text><text xml:space="preserve" font-family="SauceCodePowerline-Regular,Source Code Pro for Powerline" font-size="36.0" fill="#19B7D1" transform="matrix(1.00, 0.00, -0.00, -1.00, 317.5, 78.5)">t</text><text xml:space="preserve" font-family="SauceCodePowerline-Regular,Source Code Pro for Powerline" font-size="36.0" fill="#19B7D1" transform="matrix(1.00, 0.00, -0.00, -1.00, 339.0, 78.5)">p</text><text xml:space="preserve" font-family="SauceCodePowerline-Regular,Source Code Pro for Powerline" font-size="36.0" fill="#19B7D1" transform="matrix(1.00, 0.00, -0.00, -1.00, 360.6, 78.5)">:</text><text xml:space="preserve" font-family="SauceCodePowerline-Regular,Source Code Pro for Powerline" font-size="36.0" fill="#19B7D1" transform="matrix(1.00, 0.00, -0.00, -1.00, 382.1, 78.5)">/</text><text xml:space="preserve" font-family="SauceCodePowerline-Regular,Source Code Pro for Powerline" font-size="36.0" fill="#19B7D1" transform="matrix(1.00, 0.00, -0.00, -1.00, 403.7, 78.5)">/</text><text xml:space="preserve" font-family="SauceCodePowerline-Regular,Source Code Pro for Powerline" font-size="36.0" fill="#19B7D1" transform="matrix(1.00, 0.00, -0.00, -1.00, 425.3, 78.5)">t</text><text xml:space="preserve" font-family="SauceCodePowerline-Regular,Source Code Pro for Powerline" font-size="36.0" fill="#19B7D1" transform="matrix(1.00, 0.00, -0.00, -1.00, 446.8, 78.5)">r</text><text xml:space="preserve" font-family="SauceCodePowerline-Regular,Source Code Pro for Powerline" font-size="36.0" fill="#19B7D1" transform="matrix(1.00, 0.00, -0.00, -1.00, 468.4, 78.5)">y</text><text xml:space="preserve" font-family="SauceCodePowerline-Regular,Source Code Pro for Powerline" font-size="36.0" fill="#19B7D1" transform="matrix(1.00, 0.00, -0.00, -1.00, 490.0, 78.5)">.</text><text xml:space="preserve" font-family="SauceCodePowerline-Regular,Source Code Pro for Powerline" font-size="36.0" fill="#19B7D1" transform="matrix(1.00, 0.00, -0.00, -1.00, 511.5, 78.5)">b</text><text xml:space="preserve" font-family="SauceCodePowerline-Regular,Source Code Pro for Powerline" font-size="36.0" fill="#19B7D1" transform="matrix(1.00, 0.00, -0.00, -1.00, 533.1, 78.5)">i</text><text xml:space="preserve" font-family="SauceCodePowerline-Regular,Source Code Pro for Powerline" font-size="36.0" fill="#19B7D1" transform="matrix(1.00, 0.00, -0.00, -1.00, 554.7, 78.5)">o</text><text xml:space="preserve" font-family="SauceCodePowerline-Regular,Source Code Pro for Powerline" font-size="36.0" fill="#19B7D1" transform="matrix(1.00, 0.00, -0.00, -1.00, 576.2, 78.5)">n</text><text xml:space="preserve" font-family="SauceCodePowerline-Regular,Source Code Pro for Powerline" font-size="36.0" fill="#19B7D1" transform="matrix(1.00, 0.00, -0.00, -1.00, 597.8, 78.5)">o</text><text xml:space="preserve" font-family="SauceCodePowerline-Regular,Source Code Pro for Powerline" font-size="36.0" fill="#19B7D1" transform="matrix(1.00, 0.00, -0.00, -1.00, 619.3, 78.5)">d</text><text xml:space="preserve" font-family="SauceCodePowerline-Regular,Source Code Pro for Powerline" font-size="36.0" fill="#19B7D1" transform="matrix(1.00, 0.00, -0.00, -1.00, 640.9, 78.5)">e</text><text xml:space="preserve" font-family="SauceCodePowerline-Regular,Source Code Pro for Powerline" font-size="36.0" fill="#19B7D1" transform="matrix(1.00, 0.00, -0.00, -1.00, 662.5, 78.5)">.</text><text xml:space="preserve" font-family="SauceCodePowerline-Regular,Source Code Pro for Powerline" font-size="36.0" fill="#19B7D1" transform="matrix(1.00, 0.00, -0.00, -1.00, 684.0, 78.5)">i</text><text xml:space="preserve" font-family="SauceCodePowerline-Regular,Source Code Pro for Powerline" font-size="36.0" fill="#19B7D1" transform="matrix(1.00, 0.00, -0.00, -1.00, 705.6, 78.5)">o</text><text xml:space="preserve" font-family="SauceCodePowerline-Regular,Source Code Pro for Powerline" font-size="36.0" fill="#19B7D1" transform="matrix(1.00, 0.00, -0.00, -1.00, 269.2, 114.1)">h</text><text xml:space="preserve" font-family="SauceCodePowerline-Regular,Source Code Pro for Powerline" font-size="36.0" fill="#19B7D1" transform="matrix(1.00, 0.00, -0.00, -1.00, 290.8, 114.1)">t</text><text xml:space="preserve" font-family="SauceCodePowerline-Regular,Source Code Pro for Powerline" font-size="36.0" fill="#19B7D1" transform="matrix(1.00, 0.00, -0.00, -1.00, 312.4, 114.1)">t</text><text xml:space="preserve" font-family="SauceCodePowerline-Regular,Source Code Pro for Powerline" font-size="36.0" fill="#19B7D1" transform="matrix(1.00, 0.00, -0.00, -1.00, 333.9, 114.1)">p</text><text xml:space="preserve" font-family="SauceCodePowerline-Regular,Source Code Pro for Powerline" font-size="36.0" fill="#19B7D1" transform="matrix(1.00, 0.00, -0.00, -1.00, 355.5, 114.1)">:</text><text xml:space="preserve" font-family="SauceCodePowerline-Regular,Source Code Pro for Powerline" font-size="36.0" fill="#19B7D1" transform="matrix(1.00, 0.00, -0.00, -1.00, 377.1, 114.1)">/</text><text xml:space="preserve" font-family="SauceCodePowerline-Regular,Source Code Pro for Powerline" font-size="36.0" fill="#19B7D1" transform="matrix(1.00, 0.00, -0.00, -1.00, 398.6, 114.1)">/</text><text xml:space="preserve" font-family="SauceCodePowerline-Regular,Source Code Pro for Powerline" font-size="36.0" fill="#19B7D1" transform="matrix(1.00, 0.00, -0.00, -1.00, 420.2, 114.1)">b</text><text xml:space="preserve" font-family="SauceCodePowerline-Regular,Source Code Pro for Powerline" font-size="36.0" fill="#19B7D1" transform="matrix(1.00, 0.00, -0.00, -1.00, 441.7, 114.1)">m</text><text xml:space="preserve" font-family="SauceCodePowerline-Regular,Source Code Pro for Powerline" font-size="36.0" fill="#19B7D1" transform="matrix(1.00, 0.00, -0.00, -1.00, 463.3, 114.1)">p</text><text xml:space="preserve" font-family="SauceCodePowerline-Regular,Source Code Pro for Powerline" font-size="36.0" fill="#19B7D1" transform="matrix(1.00, 0.00, -0.00, -1.00, 484.9, 114.1)">v</text><text xml:space="preserve" font-family="SauceCodePowerline-Regular,Source Code Pro for Powerline" font-size="36.0" fill="#19B7D1" transform="matrix(1.00, 0.00, -0.00, -1.00, 506.4, 114.1)">i</text><text xml:space="preserve" font-family="SauceCodePowerline-Regular,Source Code Pro for Powerline" font-size="36.0" fill="#19B7D1" transform="matrix(1.00, 0.00, -0.00, -1.00, 528.0, 114.1)">e</text><text xml:space="preserve" font-family="SauceCodePowerline-Regular,Source Code Pro for Powerline" font-size="36.0" fill="#19B7D1" transform="matrix(1.00, 0.00, -0.00, -1.00, 549.6, 114.1)">i</text><text xml:space="preserve" font-family="SauceCodePowerline-Regular,Source Code Pro for Powerline" font-size="36.0" fill="#19B7D1" transform="matrix(1.00, 0.00, -0.00, -1.00, 571.1, 114.1)">r</text><text xml:space="preserve" font-family="SauceCodePowerline-Regular,Source Code Pro for Powerline" font-size="36.0" fill="#19B7D1" transform="matrix(1.00, 0.00, -0.00, -1.00, 592.7, 114.1)">a</text><text xml:space="preserve" font-family="SauceCodePowerline-Regular,Source Code Pro for Powerline" font-size="36.0" fill="#19B7D1" transform="matrix(1.00, 0.00, -0.00, -1.00, 614.3, 114.1)">.</text><text xml:space="preserve" font-family="SauceCodePowerline-Regular,Source Code Pro for Powerline" font-size="36.0" fill="#19B7D1" transform="matrix(1.00, 0.00, -0.00, -1.00, 635.8, 114.1)">c</text><text xml:space="preserve" font-family="SauceCodePowerline-Regular,Source Code Pro for Powerline" font-size="36.0" fill="#19B7D1" transform="matrix(1.00, 0.00, -0.00, -1.00, 657.4, 114.1)">o</text><text xml:space="preserve" font-family="SauceCodePowerline-Regular,Source Code Pro for Powerline" font-size="36.0" fill="#19B7D1" transform="matrix(1.00, 0.00, -0.00, -1.00, 679.0, 114.1)">m</text><text xml:space="preserve" font-family="SauceCodePowerline-Regular,Source Code Pro for Powerline" font-size="36.0" fill="#19B7D1" transform="matrix(1.00, 0.00, -0.00, -1.00, 700.5, 114.1)">/</text><text xml:space="preserve" font-family="SauceCodePowerline-Regular,Source Code Pro for Powerline" font-size="36.0" fill="#19B7D1" transform="matrix(1.00, 0.00, -0.00, -1.00, 722.1, 114.1)">c</text><text xml:space="preserve" font-family="SauceCodePowerline-Regular,Source Code Pro for Powerline" font-size="36.0" fill="#19B7D1" transform="matrix(1.00, 0.00, -0.00, -1.00, 743.6, 114.1)">w</text><text xml:space="preserve" font-family="SauceCodePowerline-Regular,Source Code Pro for Powerline" font-size="36.0" fill="#19B7D1" transform="matrix(1.00, 0.00, -0.00, -1.00, 765.2, 114.1)">1</text><text xml:space="preserve" font-family="SauceCodePowerline-Regular,Source Code Pro for Powerline" font-size="36.0" fill="#19B7D1" transform="matrix(1.00, 0.00, -0.00, -1.00, 786.8, 114.1)">5</text><g><clipPath id="clip0x608000ab35c0"><path d="M 268.2 107.0 L 808.3 107.0 L 808.3 111.5 L 268.2 111.5 Z M 268.2 107.0 "></path></clipPath><g clip-path="url(#clip0x608000ab35c0)"><path d="M 4.5 46.1 L 543.6 46.1 " fill="none" stroke="#19B7D1" stroke-width="2.45" transform="matrix(1.00, 0.00, 0.00, -1.00, 264.7, 155.3)"></path></g></g><text xml:space="preserve" font-family="SauceCodePowerline-Regular,Source Code Pro for Powerline" font-size="36.0" fill="#19B7D1" transform="matrix(1.00, 0.00, -0.00, -1.00, 274.3, 45.3)">h</text><text xml:space="preserve" font-family="SauceCodePowerline-Regular,Source Code Pro for Powerline" font-size="36.0" fill="#19B7D1" transform="matrix(1.00, 0.00, -0.00, -1.00, 295.9, 45.3)">t</text><text xml:space="preserve" font-family="SauceCodePowerline-Regular,Source Code Pro for Powerline" font-size="36.0" fill="#19B7D1" transform="matrix(1.00, 0.00, -0.00, -1.00, 317.5, 45.3)">t</text><text xml:space="preserve" font-family="SauceCodePowerline-Regular,Source Code Pro for Powerline" font-size="36.0" fill="#19B7D1" transform="matrix(1.00, 0.00, -0.00, -1.00, 339.0, 45.3)">p</text><text xml:space="preserve" font-family="SauceCodePowerline-Regular,Source Code Pro for Powerline" font-size="36.0" fill="#19B7D1" transform="matrix(1.00, 0.00, -0.00, -1.00, 360.6, 45.3)">:</text><text xml:space="preserve" font-family="SauceCodePowerline-Regular,Source Code Pro for Powerline" font-size="36.0" fill="#19B7D1" transform="matrix(1.00, 0.00, -0.00, -1.00, 382.1, 45.3)">/</text><text xml:space="preserve" font-family="SauceCodePowerline-Regular,Source Code Pro for Powerline" font-size="36.0" fill="#19B7D1" transform="matrix(1.00, 0.00, -0.00, -1.00, 403.7, 45.3)">/</text><text xml:space="preserve" font-family="SauceCodePowerline-Regular,Source Code Pro for Powerline" font-size="36.0" fill="#19B7D1" transform="matrix(1.00, 0.00, -0.00, -1.00, 425.3, 45.3)">b</text><text xml:space="preserve" font-family="SauceCodePowerline-Regular,Source Code Pro for Powerline" font-size="36.0" fill="#19B7D1" transform="matrix(1.00, 0.00, -0.00, -1.00, 446.8, 45.3)">i</text><text xml:space="preserve" font-family="SauceCodePowerline-Regular,Source Code Pro for Powerline" font-size="36.0" fill="#19B7D1" transform="matrix(1.00, 0.00, -0.00, -1.00, 468.4, 45.3)">t</text><text xml:space="preserve" font-family="SauceCodePowerline-Regular,Source Code Pro for Powerline" font-size="36.0" fill="#19B7D1" transform="matrix(1.00, 0.00, -0.00, -1.00, 490.0, 45.3)">.</text><text xml:space="preserve" font-family="SauceCodePowerline-Regular,Source Code Pro for Powerline" font-size="36.0" fill="#19B7D1" transform="matrix(1.00, 0.00, -0.00, -1.00, 511.5, 45.3)">l</text><text xml:space="preserve" font-family="SauceCodePowerline-Regular,Source Code Pro for Powerline" font-size="36.0" fill="#19B7D1" transform="matrix(1.00, 0.00, -0.00, -1.00, 533.1, 45.3)">y</text><text xml:space="preserve" font-family="SauceCodePowerline-Regular,Source Code Pro for Powerline" font-size="36.0" fill="#19B7D1" transform="matrix(1.00, 0.00, -0.00, -1.00, 554.7, 45.3)">/</text><text xml:space="preserve" font-family="SauceCodePowerline-Regular,Source Code Pro for Powerline" font-size="36.0" fill="#19B7D1" transform="matrix(1.00, 0.00, -0.00, -1.00, 576.2, 45.3)">t</text><text xml:space="preserve" font-family="SauceCodePowerline-Regular,Source Code Pro for Powerline" font-size="36.0" fill="#19B7D1" transform="matrix(1.00, 0.00, -0.00, -1.00, 597.8, 45.3)">r</text><text xml:space="preserve" font-family="SauceCodePowerline-Regular,Source Code Pro for Powerline" font-size="36.0" fill="#19B7D1" transform="matrix(1.00, 0.00, -0.00, -1.00, 619.3, 45.3)">y</text><text xml:space="preserve" font-family="SauceCodePowerline-Regular,Source Code Pro for Powerline" font-size="36.0" fill="#19B7D1" transform="matrix(1.00, 0.00, -0.00, -1.00, 640.9, 45.3)">-</text><text xml:space="preserve" font-family="SauceCodePowerline-Regular,Source Code Pro for Powerline" font-size="36.0" fill="#19B7D1" transform="matrix(1.00, 0.00, -0.00, -1.00, 662.5, 45.3)">d</text><text xml:space="preserve" font-family="SauceCodePowerline-Regular,Source Code Pro for Powerline" font-size="36.0" fill="#19B7D1" transform="matrix(1.00, 0.00, -0.00, -1.00, 684.0, 45.3)">a</text><text xml:space="preserve" font-family="SauceCodePowerline-Regular,Source Code Pro for Powerline" font-size="36.0" fill="#19B7D1" transform="matrix(1.00, 0.00, -0.00, -1.00, 705.6, 45.3)">t</text><g><clipPath id="clip0x608000ea9960"><path d="M 273.3 38.1 L 727.2 38.1 L 727.2 42.6 L 273.3 42.6 Z M 273.3 38.1 "></path></clipPath><g clip-path="url(#clip0x608000ea9960)"><path d="M 4.5 46.1 L 457.3 46.1 " fill="none" stroke="#19B7D1" stroke-width="2.45" transform="matrix(1.00, 0.00, 0.00, -1.00, 269.8, 86.4)"></path></g></g><text xml:space="preserve" font-family="GillSans-Light,Gill Sans" font-size="50.0" fill="#525252" transform="matrix(1.00, 0.00, -0.00, -1.00, 123.0, 522.7)">B</text><text xml:space="preserve" font-family="GillSans-Light,Gill Sans" font-size="50.0" fill="#525252" transform="matrix(1.00, 0.00, -0.00, -1.00, 149.5, 522.7)">i</text><text xml:space="preserve" font-family="GillSans-Light,Gill Sans" font-size="50.0" fill="#525252" transform="matrix(1.00, 0.00, -0.00, -1.00, 158.9, 522.7)">o</text><text xml:space="preserve" font-family="GillSans-Light,Gill Sans" font-size="50.0" fill="#525252" transform="matrix(1.00, 0.00, -0.00, -1.00, 186.0, 522.7)">i</text><text xml:space="preserve" font-family="GillSans-Light,Gill Sans" font-size="50.0" fill="#525252" transform="matrix(1.00, 0.00, -0.00, -1.00, 195.4, 522.7)">n</text><text xml:space="preserve" font-family="GillSans-Light,Gill Sans" font-size="50.0" fill="#525252" transform="matrix(1.00, 0.00, -0.00, -1.00, 219.9, 522.7)">f</text><text xml:space="preserve" font-family="GillSans-Light,Gill Sans" font-size="50.0" fill="#525252" transform="matrix(1.00, 0.00, -0.00, -1.00, 231.5, 522.7)">o</text><text xml:space="preserve" font-family="GillSans-Light,Gill Sans" font-size="50.0" fill="#525252" transform="matrix(1.00, 0.00, -0.00, -1.00, 258.6, 522.7)">r</text><text xml:space="preserve" font-family="GillSans-Light,Gill Sans" font-size="50.0" fill="#525252" transform="matrix(1.00, 0.00, -0.00, -1.00, 276.5, 522.7)">m</text><text xml:space="preserve" font-family="GillSans-Light,Gill Sans" font-size="50.0" fill="#525252" transform="matrix(1.00, 0.00, -0.00, -1.00, 315.0, 522.7)">a</text><text xml:space="preserve" font-family="GillSans-Light,Gill Sans" font-size="50.0" fill="#525252" transform="matrix(1.00, 0.00, -0.00, -1.00, 336.3, 522.7)">t</text><text xml:space="preserve" font-family="GillSans-Light,Gill Sans" font-size="50.0" fill="#525252" transform="matrix(1.00, 0.00, -0.00, -1.00, 351.4, 522.7)">i</text><text xml:space="preserve" font-family="GillSans-Light,Gill Sans" font-size="50.0" fill="#525252" transform="matrix(1.00, 0.00, -0.00, -1.00, 360.8, 522.7)">c</text><text xml:space="preserve" font-family="GillSans-Light,Gill Sans" font-size="50.0" fill="#525252" transform="matrix(1.00, 0.00, -0.00, -1.00, 381.7, 522.7)">s</text><text xml:space="preserve" font-family="GillSans-Light,Gill Sans" font-size="50.0" fill="#525252" transform="matrix(1.00, 0.00, -0.00, -1.00, 399.4, 522.7)"> </text><text xml:space="preserve" font-family="GillSans-Light,Gill Sans" font-size="50.0" fill="#525252" transform="matrix(1.00, 0.00, -0.00, -1.00, 413.3, 522.7)">w</text><text xml:space="preserve" font-family="GillSans-Light,Gill Sans" font-size="50.0" fill="#525252" transform="matrix(1.00, 0.00, -0.00, -1.00, 447.9, 522.7)">o</text><text xml:space="preserve" font-family="GillSans-Light,Gill Sans" font-size="50.0" fill="#525252" transform="matrix(1.00, 0.00, -0.00, -1.00, 475.0, 522.7)">r</text><text xml:space="preserve" font-family="GillSans-Light,Gill Sans" font-size="50.0" fill="#525252" transform="matrix(1.00, 0.00, -0.00, -1.00, 493.6, 522.7)">k</text><text xml:space="preserve" font-family="GillSans-Light,Gill Sans" font-size="50.0" fill="#525252" transform="matrix(1.00, 0.00, -0.00, -1.00, 515.0, 522.7)">ﬂ</text><text xml:space="preserve" font-family="GillSans-Light,Gill Sans" font-size="50.0" fill="#525252" transform="matrix(1.00, 0.00, -0.00, -1.00, 538.9, 522.7)">o</text><text xml:space="preserve" font-family="GillSans-Light,Gill Sans" font-size="50.0" fill="#525252" transform="matrix(1.00, 0.00, -0.00, -1.00, 565.3, 522.7)">w</text><text xml:space="preserve" font-family="GillSans-Light,Gill Sans" font-size="50.0" fill="#525252" transform="matrix(1.00, 0.00, -0.00, -1.00, 600.7, 522.7)">s</text><text xml:space="preserve" font-family="GillSans-Light,Gill Sans" font-size="50.0" fill="#525252" transform="matrix(1.00, 0.00, -0.00, -1.00, 618.4, 522.7)"> </text><text xml:space="preserve" font-family="GillSans-Light,Gill Sans" font-size="50.0" fill="#525252" transform="matrix(1.00, 0.00, -0.00, -1.00, 632.3, 522.7)">i</text><text xml:space="preserve" font-family="GillSans-Light,Gill Sans" font-size="50.0" fill="#525252" transform="matrix(1.00, 0.00, -0.00, -1.00, 641.7, 522.7)">n</text><text xml:space="preserve" font-family="GillSans-Light,Gill Sans" font-size="50.0" fill="#525252" transform="matrix(1.00, 0.00, -0.00, -1.00, 666.2, 522.7)"> </text><text xml:space="preserve" font-family="GillSans-Light,Gill Sans" font-size="50.0" fill="#525252" transform="matrix(1.00, 0.00, -0.00, -1.00, 680.1, 522.7)">N</text><text xml:space="preserve" font-family="GillSans-Light,Gill Sans" font-size="50.0" fill="#525252" transform="matrix(1.00, 0.00, -0.00, -1.00, 718.6, 522.7)">o</text><text xml:space="preserve" font-family="GillSans-Light,Gill Sans" font-size="50.0" fill="#525252" transform="matrix(1.00, 0.00, -0.00, -1.00, 745.7, 522.7)">d</text><text xml:space="preserve" font-family="GillSans-Light,Gill Sans" font-size="50.0" fill="#525252" transform="matrix(1.00, 0.00, -0.00, -1.00, 771.2, 522.7)">e</text><text xml:space="preserve" font-family="GillSans-Light,Gill Sans" font-size="50.0" fill="#525252" transform="matrix(1.00, 0.00, -0.00, -1.00, 795.1, 522.7)">-</text><text xml:space="preserve" font-family="GillSans-Light,Gill Sans" font-size="50.0" fill="#525252" transform="matrix(1.00, 0.00, -0.00, -1.00, 810.8, 522.7)">R</text><text xml:space="preserve" font-family="GillSans-Light,Gill Sans" font-size="50.0" fill="#525252" transform="matrix(1.00, 0.00, -0.00, -1.00, 839.5, 522.7)">E</text><text xml:space="preserve" font-family="GillSans-Light,Gill Sans" font-size="50.0" fill="#525252" transform="matrix(1.00, 0.00, -0.00, -1.00, 864.0, 522.7)">D</text><text xml:space="preserve" font-family="SauceCodePowerline-Regular,Source Code Pro for Powerline" font-size="50.0" fill="#19B7D1" transform="matrix(1.00, 0.00, -0.00, -1.00, 182.9, 591.0)">h</text><text xml:space="preserve" font-family="SauceCodePowerline-Regular,Source Code Pro for Powerline" font-size="50.0" fill="#19B7D1" transform="matrix(1.00, 0.00, -0.00, -1.00, 212.8, 591.0)">t</text><text xml:space="preserve" font-family="SauceCodePowerline-Regular,Source Code Pro for Powerline" font-size="50.0" fill="#19B7D1" transform="matrix(1.00, 0.00, -0.00, -1.00, 242.8, 591.0)">t</text><text xml:space="preserve" font-family="SauceCodePowerline-Regular,Source Code Pro for Powerline" font-size="50.0" fill="#19B7D1" transform="matrix(1.00, 0.00, -0.00, -1.00, 272.7, 591.0)">p</text><text xml:space="preserve" font-family="SauceCodePowerline-Regular,Source Code Pro for Powerline" font-size="50.0" fill="#19B7D1" transform="matrix(1.00, 0.00, -0.00, -1.00, 302.7, 591.0)">:</text><text xml:space="preserve" font-family="SauceCodePowerline-Regular,Source Code Pro for Powerline" font-size="50.0" fill="#19B7D1" transform="matrix(1.00, 0.00, -0.00, -1.00, 332.6, 591.0)">/</text><text xml:space="preserve" font-family="SauceCodePowerline-Regular,Source Code Pro for Powerline" font-size="50.0" fill="#19B7D1" transform="matrix(1.00, 0.00, -0.00, -1.00, 362.6, 591.0)">/</text><text xml:space="preserve" font-family="SauceCodePowerline-Regular,Source Code Pro for Powerline" font-size="50.0" fill="#19B7D1" transform="matrix(1.00, 0.00, -0.00, -1.00, 392.5, 591.0)">b</text><text xml:space="preserve" font-family="SauceCodePowerline-Regular,Source Code Pro for Powerline" font-size="50.0" fill="#19B7D1" transform="matrix(1.00, 0.00, -0.00, -1.00, 422.5, 591.0)">i</text><text xml:space="preserve" font-family="SauceCodePowerline-Regular,Source Code Pro for Powerline" font-size="50.0" fill="#19B7D1" transform="matrix(1.00, 0.00, -0.00, -1.00, 452.4, 591.0)">t</text><text xml:space="preserve" font-family="SauceCodePowerline-Regular,Source Code Pro for Powerline" font-size="50.0" fill="#19B7D1" transform="matrix(1.00, 0.00, -0.00, -1.00, 482.4, 591.0)">.</text><text xml:space="preserve" font-family="SauceCodePowerline-Regular,Source Code Pro for Powerline" font-size="50.0" fill="#19B7D1" transform="matrix(1.00, 0.00, -0.00, -1.00, 512.3, 591.0)">l</text><text xml:space="preserve" font-family="SauceCodePowerline-Regular,Source Code Pro for Powerline" font-size="50.0" fill="#19B7D1" transform="matrix(1.00, 0.00, -0.00, -1.00, 542.3, 591.0)">y</text><text xml:space="preserve" font-family="SauceCodePowerline-Regular,Source Code Pro for Powerline" font-size="50.0" fill="#19B7D1" transform="matrix(1.00, 0.00, -0.00, -1.00, 572.2, 591.0)">/</text><text xml:space="preserve" font-family="SauceCodePowerline-Regular,Source Code Pro for Powerline" font-size="50.0" fill="#19B7D1" transform="matrix(1.00, 0.00, -0.00, -1.00, 602.2, 591.0)">b</text><text xml:space="preserve" font-family="SauceCodePowerline-Regular,Source Code Pro for Powerline" font-size="50.0" fill="#19B7D1" transform="matrix(1.00, 0.00, -0.00, -1.00, 632.1, 591.0)">i</text><text xml:space="preserve" font-family="SauceCodePowerline-Regular,Source Code Pro for Powerline" font-size="50.0" fill="#19B7D1" transform="matrix(1.00, 0.00, -0.00, -1.00, 662.1, 591.0)">o</text><text xml:space="preserve" font-family="SauceCodePowerline-Regular,Source Code Pro for Powerline" font-size="50.0" fill="#19B7D1" transform="matrix(1.00, 0.00, -0.00, -1.00, 692.0, 591.0)">c</text><text xml:space="preserve" font-family="SauceCodePowerline-Regular,Source Code Pro for Powerline" font-size="50.0" fill="#19B7D1" transform="matrix(1.00, 0.00, -0.00, -1.00, 722.0, 591.0)">w</text><text xml:space="preserve" font-family="SauceCodePowerline-Regular,Source Code Pro for Powerline" font-size="50.0" fill="#19B7D1" transform="matrix(1.00, 0.00, -0.00, -1.00, 751.9, 591.0)">1</text><text xml:space="preserve" font-family="SauceCodePowerline-Regular,Source Code Pro for Powerline" font-size="50.0" fill="#19B7D1" transform="matrix(1.00, 0.00, -0.00, -1.00, 781.9, 591.0)">5</text><path d="M 0.1 -0.2 L 1026.1 -0.2 " fill="none" stroke="#595E5D" stroke-width="2.00" transform="matrix(1.00, 0.00, 0.00, -1.00, -1.1, 565.8)"></path><path d="M 0.1 -0.4 L 1026.1 -0.4 " fill="none" stroke="#595E5D" stroke-width="2.00" transform="matrix(1.00, 0.00, 0.00, -1.00, -1.1, 387.6)"></path><image xlink:href="206DBDCD857A4CCC61EACA7CAD5C72F8.png" width="1199.00" height="438.00" transform="matrix(0.85, 0.00, -0.00, -0.85, 0.0, 331.0)"></image><text xml:space="preserve" font-family="SauceCodePowerline-Regular,Source Code Pro for Powerline" font-size="50.0" fill="#19B7D1" transform="matrix(1.00, 0.00, -0.00, -1.00, 242.5, 419.5)">h</text><text xml:space="preserve" font-family="SauceCodePowerline-Regular,Source Code Pro for Powerline" font-size="50.0" fill="#19B7D1" transform="matrix(1.00, 0.00, -0.00, -1.00, 272.4, 419.5)">t</text><text xml:space="preserve" font-family="SauceCodePowerline-Regular,Source Code Pro for Powerline" font-size="50.0" fill="#19B7D1" transform="matrix(1.00, 0.00, -0.00, -1.00, 302.4, 419.5)">t</text><text xml:space="preserve" font-family="SauceCodePowerline-Regular,Source Code Pro for Powerline" font-size="50.0" fill="#19B7D1" transform="matrix(1.00, 0.00, -0.00, -1.00, 332.3, 419.5)">p</text><text xml:space="preserve" font-family="SauceCodePowerline-Regular,Source Code Pro for Powerline" font-size="50.0" fill="#19B7D1" transform="matrix(1.00, 0.00, -0.00, -1.00, 362.2, 419.5)">:</text><text xml:space="preserve" font-family="SauceCodePowerline-Regular,Source Code Pro for Powerline" font-size="50.0" fill="#19B7D1" transform="matrix(1.00, 0.00, -0.00, -1.00, 392.2, 419.5)">/</text><text xml:space="preserve" font-family="SauceCodePowerline-Regular,Source Code Pro for Powerline" font-size="50.0" fill="#19B7D1" transform="matrix(1.00, 0.00, -0.00, -1.00, 422.1, 419.5)">/</text><text xml:space="preserve" font-family="SauceCodePowerline-Regular,Source Code Pro for Powerline" font-size="50.0" fill="#19B7D1" transform="matrix(1.00, 0.00, -0.00, -1.00, 452.1, 419.5)">n</text><text xml:space="preserve" font-family="SauceCodePowerline-Regular,Source Code Pro for Powerline" font-size="50.0" fill="#19B7D1" transform="matrix(1.00, 0.00, -0.00, -1.00, 482.0, 419.5)">o</text><text xml:space="preserve" font-family="SauceCodePowerline-Regular,Source Code Pro for Powerline" font-size="50.0" fill="#19B7D1" transform="matrix(1.00, 0.00, -0.00, -1.00, 512.0, 419.5)">d</text><text xml:space="preserve" font-family="SauceCodePowerline-Regular,Source Code Pro for Powerline" font-size="50.0" fill="#19B7D1" transform="matrix(1.00, 0.00, -0.00, -1.00, 541.9, 419.5)">e</text><text xml:space="preserve" font-family="SauceCodePowerline-Regular,Source Code Pro for Powerline" font-size="50.0" fill="#19B7D1" transform="matrix(1.00, 0.00, -0.00, -1.00, 571.9, 419.5)">r</text><text xml:space="preserve" font-family="SauceCodePowerline-Regular,Source Code Pro for Powerline" font-size="50.0" fill="#19B7D1" transform="matrix(1.00, 0.00, -0.00, -1.00, 601.8, 419.5)">e</text><text xml:space="preserve" font-family="SauceCodePowerline-Regular,Source Code Pro for Powerline" font-size="50.0" fill="#19B7D1" transform="matrix(1.00, 0.00, -0.00, -1.00, 631.8, 419.5)">d</text><text xml:space="preserve" font-family="SauceCodePowerline-Regular,Source Code Pro for Powerline" font-size="50.0" fill="#19B7D1" transform="matrix(1.00, 0.00, -0.00, -1.00, 661.7, 419.5)">.</text><text xml:space="preserve" font-family="SauceCodePowerline-Regular,Source Code Pro for Powerline" font-size="50.0" fill="#19B7D1" transform="matrix(1.00, 0.00, -0.00, -1.00, 691.7, 419.5)">o</text><text xml:space="preserve" font-family="SauceCodePowerline-Regular,Source Code Pro for Powerline" font-size="50.0" fill="#19B7D1" transform="matrix(1.00, 0.00, -0.00, -1.00, 721.6, 419.5)">r</text><text xml:space="preserve" font-family="SauceCodePowerline-Regular,Source Code Pro for Powerline" font-size="50.0" fill="#19B7D1" transform="matrix(1.00, 0.00, -0.00, -1.00, 751.6, 419.5)">g</text><g><clipPath id="clip0x608000eb3b00"><path d="M 241.5 410.0 L 781.6 410.0 L 781.6 415.4 L 241.5 415.4 Z M 241.5 410.0 "></path></clipPath><g clip-path="url(#clip0x608000eb3b00)"><path d="M 4.5 63.1 L 543.6 63.1 " fill="none" stroke="#19B7D1" stroke-width="3.40" transform="matrix(1.00, 0.00, 0.00, -1.00, 238.0, 475.8)"></path></g></g></g></svg>