<?xml version="1.0" encoding="UTF-8" standalone="no"?><svg xmlns="http://www.w3.org/2000/svg" xmlns:xlink="http://www.w3.org/1999/xlink" clip-rule="evenodd" stroke-miterlimit="10" viewBox="0 0 1024 768"><desc>SVG generated by Keynote</desc><defs></defs><g transform="matrix(1.00, 0.00, -0.00, -1.00, 0.0, 768.0)"><g><clipPath id="clip0x6000010b1940"><path d="M 0.0 768.0 L 1024.0 768.0 L 1024.0 0.0 L 0.0 0.0 Z M 0.0 768.0 "></path></clipPath><g clip-path="url(#clip0x6000010b1940)"><image xlink:href="../../16B8362E-6469-47BC-976D-7D236EA9E3CB/assets/574DCE55A4CF432400CBDDDE1DFDFC9B.jpeg" width="2048.00" height="1536.00" transform="matrix(0.50, 0.00, -0.00, -0.50, 0.0, 768.0)"></image></g></g><g opacity="0.10"><g><clipPath id="clip0x608000eacea0"><path d="M 0.0 0.0 L 1024.0 0.0 L 1024.0 534.0 L 0.0 534.0 Z M 0.0 0.0 "></path></clipPath><g clip-path="url(#clip0x608000eacea0)"><image xlink:href="../../16B8362E-6469-47BC-976D-7D236EA9E3CB/assets/DAA0CB2C1283EC3FF20C1F3005C38FD4.png" width="990.00" height="409.00" transform="matrix(1.30, 0.00, -0.00, -1.30, -144.0, 532.0)"></image></g></g></g><image xlink:href="../../BC2049AB-F71D-4568-9579-037ED8AA7D1D/assets/DA7F19C09275C1A55973C3D048C87402.png" width="3100.00" height="1984.00" transform="matrix(0.35, 0.00, -0.00, -0.35, -32.0, 753.0)"></image><text xml:space="preserve" font-family="SauceCodePowerline-Regular,Source Code Pro for Powerline" font-size="36.0" fill="#19B7D1" transform="matrix(1.00, 0.00, -0.00, -1.00, 285.6, 52.7)">h</text><text xml:space="preserve" font-family="SauceCodePowerline-Regular,Source Code Pro for Powerline" font-size="36.0" fill="#19B7D1" transform="matrix(1.00, 0.00, -0.00, -1.00, 307.1, 52.7)">t</text><text xml:space="preserve" font-family="SauceCodePowerline-Regular,Source Code Pro for Powerline" font-size="36.0" fill="#19B7D1" transform="matrix(1.00, 0.00, -0.00, -1.00, 328.7, 52.7)">t</text><text xml:space="preserve" font-family="SauceCodePowerline-Regular,Source Code Pro for Powerline" font-size="36.0" fill="#19B7D1" transform="matrix(1.00, 0.00, -0.00, -1.00, 350.3, 52.7)">p</text><text xml:space="preserve" font-family="SauceCodePowerline-Regular,Source Code Pro for Powerline" font-size="36.0" fill="#19B7D1" transform="matrix(1.00, 0.00, -0.00, -1.00, 371.8, 52.7)">:</text><text xml:space="preserve" font-family="SauceCodePowerline-Regular,Source Code Pro for Powerline" font-size="36.0" fill="#19B7D1" transform="matrix(1.00, 0.00, -0.00, -1.00, 393.4, 52.7)">/</text><text xml:space="preserve" font-family="SauceCodePowerline-Regular,Source Code Pro for Powerline" font-size="36.0" fill="#19B7D1" transform="matrix(1.00, 0.00, -0.00, -1.00, 415.0, 52.7)">/</text><text xml:space="preserve" font-family="SauceCodePowerline-Regular,Source Code Pro for Powerline" font-size="36.0" fill="#19B7D1" transform="matrix(1.00, 0.00, -0.00, -1.00, 436.5, 52.7)">b</text><text xml:space="preserve" font-family="SauceCodePowerline-Regular,Source Code Pro for Powerline" font-size="36.0" fill="#19B7D1" transform="matrix(1.00, 0.00, -0.00, -1.00, 458.1, 52.7)">i</text><text xml:space="preserve" font-family="SauceCodePowerline-Regular,Source Code Pro for Powerline" font-size="36.0" fill="#19B7D1" transform="matrix(1.00, 0.00, -0.00, -1.00, 479.7, 52.7)">t</text><text xml:space="preserve" font-family="SauceCodePowerline-Regular,Source Code Pro for Powerline" font-size="36.0" fill="#19B7D1" transform="matrix(1.00, 0.00, -0.00, -1.00, 501.2, 52.7)">.</text><text xml:space="preserve" font-family="SauceCodePowerline-Regular,Source Code Pro for Powerline" font-size="36.0" fill="#19B7D1" transform="matrix(1.00, 0.00, -0.00, -1.00, 522.8, 52.7)">l</text><text xml:space="preserve" font-family="SauceCodePowerline-Regular,Source Code Pro for Powerline" font-size="36.0" fill="#19B7D1" transform="matrix(1.00, 0.00, -0.00, -1.00, 544.3, 52.7)">y</text><text xml:space="preserve" font-family="SauceCodePowerline-Regular,Source Code Pro for Powerline" font-size="36.0" fill="#19B7D1" transform="matrix(1.00, 0.00, -0.00, -1.00, 565.9, 52.7)">/</text><text xml:space="preserve" font-family="SauceCodePowerline-Regular,Source Code Pro for Powerline" font-size="36.0" fill="#19B7D1" transform="matrix(1.00, 0.00, -0.00, -1.00, 587.5, 52.7)">t</text><text xml:space="preserve" font-family="SauceCodePowerline-Regular,Source Code Pro for Powerline" font-size="36.0" fill="#19B7D1" transform="matrix(1.00, 0.00, -0.00, -1.00, 609.0, 52.7)">r</text><text xml:space="preserve" font-family="SauceCodePowerline-Regular,Source Code Pro for Powerline" font-size="36.0" fill="#19B7D1" transform="matrix(1.00, 0.00, -0.00, -1.00, 630.6, 52.7)">y</text><text xml:space="preserve" font-family="SauceCodePowerline-Regular,Source Code Pro for Powerline" font-size="36.0" fill="#19B7D1" transform="matrix(1.00, 0.00, -0.00, -1.00, 652.2, 52.7)">-</text><text xml:space="preserve" font-family="SauceCodePowerline-Regular,Source Code Pro for Powerline" font-size="36.0" fill="#19B7D1" transform="matrix(1.00, 0.00, -0.00, -1.00, 673.7, 52.7)">d</text><text xml:space="preserve" font-family="SauceCodePowerline-Regular,Source Code Pro for Powerline" font-size="36.0" fill="#19B7D1" transform="matrix(1.00, 0.00, -0.00, -1.00, 695.3, 52.7)">a</text><text xml:space="preserve" font-family="SauceCodePowerline-Regular,Source Code Pro for Powerline" font-size="36.0" fill="#19B7D1" transform="matrix(1.00, 0.00, -0.00, -1.00, 716.9, 52.7)">t</text><g><clipPath id="clip0x608000cb29c0"><path d="M 284.6 45.6 L 738.4 45.6 L 738.4 50.0 L 284.6 50.0 Z M 284.6 45.6 "></path></clipPath><g clip-path="url(#clip0x608000cb29c0)"><path d="M 4.5 46.1 L 457.3 46.1 " fill="none" stroke="#19B7D1" stroke-width="2.45" transform="matrix(1.00, 0.00, 0.00, -1.00, 281.1, 93.8)"></path></g></g></g></svg>